<svg width="96" height="96" xmlns="http://www.w3.org/2000/svg" xmlns:xlink="http://www.w3.org/1999/xlink">
    <defs>
        <path d="M37.2989275 48.8983051c0-3.3604898-2.1935778-6.8399693-6.5807336-10.4384387l-.0000101.0000124c-.8058766-.6610028-.9690137-1.8300883-.3748744-2.6864528l1.933005-2.7861711c.5444201-.7847015 1.5676857-1.0749848 2.4430596-.6930552 1.0266558.4479347 1.8865069.671902 2.5795535.671902 2.561505 0 4.9385491-2.5448455 7.1311321-7.6345364C46.0011831 25.1105218 47.1927402 25 48.0047308 25c.8119906 0 2.0035476.1105218 3.5746711.3315653 2.1925831 5.0896909 4.5696271 7.6345364 7.1311321 7.6345364.6930447 0 1.552893-.2239661 2.579545-.6718983l-.0000029-.0000067c.8753697-.3819272 1.89863-.091645 2.4430474.6930526l1.9330262 2.7861783c.5941338.8563565.4309982 2.0254311-.374871 2.6864275-4.3871632 3.5984739-6.5807447 7.0779572-6.5807447 10.43845 0 3.3361191 2.161877 6.7895084 6.4856312 10.3601679l-.0000153.0000185c.8413062.6947707.9704937 1.9356392.2903446 2.7888094l-3.7759252 4.7365096c-.655653.8224428-1.8362934.9965177-2.7014104.3982991-1.4991721-1.0366607-2.7882475-1.554991-3.867226-1.554991-2.3402291 0-4.3870792 1.911192-6.1405504 5.733576l-.0000085-.0000039C48.8226611 71.7502662 48.4333417 72 48.0047308 72c-.4286109 0-.8179304-.2497338-.9966433-.6393093-1.7534796-3.8223801-3.8003298-5.7335721-6.1405589-5.7335721-1.0789798 0-2.368057.5183316-3.8672315 1.5549948l-.0000051-.0000074c-.865103.5982095-2.0457246.4241375-2.7013673-.3982921l-3.7759535-4.7365419c-.6801495-.8531707-.5509625-2.0940398.2903435-2.7888116 4.3237419-3.5706556 6.4856128-7.0240407 6.4856128-10.3601553z" id="a"/>
        <mask id="b" maskContentUnits="userSpaceOnUse" maskUnits="objectBoundingBox" x="0" y="0" width="36.0365398" height="47" fill="#fff">
            <use xlink:href="#a"/>
        </mask>
    </defs>
    <g fill="none" fill-rule="evenodd">
        <path d="M33 49c0-4.2943564-3.1849877-8.7435041-9.5549632-13.3474431l-9e-7.0000013c-.8952253-.6470296-1.0964277-1.8972742-.449398-2.7924996a1.99999568 1.99999568 0 01.0396338-.0529692l3.332047-4.3028926c.5575284-.7199783 1.5310278-.9724458 2.3681915-.6141671C30.4645678 28.6300099 31.8860644 29 33 29c3.5889484 0 6.9194467-3.1945932 9.9914951-9.5837797C45.1928108 19.1387401 46.8623125 19 48 19c1.1376875 0 2.8071892.1387401 5.0085049.4162203C56.0805533 25.8054068 59.4110516 29 63 29c1.1139371 0 2.535436-.3699911 4.2644967-1.1099733l.0000012.0000028c.8371704-.3582819 1.8106779-.1058125 2.3682108.6141717l3.3320177 4.3028918c.6762819.8733336.5165398 2.1295453-.3567939 2.8058271a1.99959027 1.99959027 0 01-.0529689.0396336C66.1849879 40.2564945 63 44.7056433 63 49c0 4.2681669 3.1462584 8.6892429 9.4387752 13.2632279h0c.8934667.6494545 1.0912777 1.9002392.4418232 2.7937059a2.00001425 2.00001425 0 01-.1236127.1535361l-6.076874 6.8295658c-.6621867.7442078-1.771099.887643-2.6008475.3364136C61.6944676 70.7921498 59.6680462 70 58 70c-3.2627196 0-6.1184341 2.3755119-8.5671437 7.1265356l-.0000065-.0000034C49.1563823 77.6629386 48.6034617 78 48 78h0c-.6034617 0-1.1563823-.3370614-1.4328498-.8734678C44.1184341 72.3755119 41.2627196 70 38 70c-1.668046 0-3.6944671.7921495-6.0792633 2.3764486l.0000014.0000022c-.8297534.5512326-1.9386721.4077966-2.6008627-.3364155l-6.0768596-6.8295654c-.7342495-.8251965-.6605224-2.0893773.1646741-2.8236268a2.00000411 2.00000411 0 01.1535357-.1236124C29.8537419 57.6892439 33 53.268167 33 49z" stroke="#003459" stroke-width="2" fill="#FFF"/>
        <use stroke="#003459" mask="url(#b)" stroke-width="4" stroke-dasharray="15,3" xlink:href="#a"/>
    </g>
</svg>
