<svg width="96" height="96" xmlns="http://www.w3.org/2000/svg" viewBox="0 0 96 96" xml:space="preserve">
	<path d="M26 28.1v39.7c0 3.4 2.7 6.1 6.1 6.1h31.8c3.3 0 6.1-2.7 6.1-6.1V28.1c0-3.4-2.7-6.1-6.1-6.1H32.1c-3.4 0-6.1 2.8-6.1 6.1zm-2 0c0-4.5 3.6-8.1 8.1-8.1h31.8c4.5 0 8.1 3.6 8.1 8.1v39.7c0 4.5-3.6 8.1-8.1 8.1H32.1c-4.5 0-8.1-3.6-8.1-8.1V28.1zm24 37.7c8.5 0 15.4-6.9 15.4-15.4S56.5 35 48 35s-15.4 6.9-15.4 15.4S39.5 65.8 48 65.8zm0-2c-7.4 0-13.4-6-13.4-13.4S40.6 37 48 37s13.4 6 13.4 13.4-6 13.4-13.4 13.4zM39.1 58c.3.5.9 1.2 1.9 1.9 1.4 1.1 3.2 1.8 5.2 1.9.4 0 .8-.3.8-.7 0-.4-.3-.8-.7-.8-1.7-.1-3.2-.7-4.4-1.6-.5-.3-.8-.7-1.1-1.1-.2-.2-.3-.4-.3-.5-.2-.4-.7-.5-1-.2-.5.3-.6.7-.4 1.1zm-2.9-7.3c.1.1.2-.1.4-.2.4-.2.8-.4 1.3-.6 3.1-1.2 6.3-1.3 9.3.5.2.1.4.2.6.4 3.8 2.6 7.7 2.8 11.1 1.8.7-.2 1.2-.4 1.5-.6l-.7-1.9s-.1.1-.3.1l-.9.3c-3.1.9-6.5.7-9.8-1.6-.2-.1-.4-.3-.7-.4-3.5-2.1-7.2-2-10.6-.6-.9.4-1.6.7-2 1 .5 1.2.8 1.8.8 1.8zm23.2-20.5c.9 0 1.6-.7 1.6-1.6 0-.9-.7-1.6-1.6-1.6-.9 0-1.6.7-1.6 1.6 0 .9.7 1.6 1.6 1.6zm5 0c.9 0 1.6-.7 1.6-1.6 0-.9-.7-1.6-1.6-1.6-.9 0-1.6.7-1.6 1.6 0 .9.7 1.6 1.6 1.6z" fill-rule="evenodd" clip-rule="evenodd" fill="#003459"/>
</svg>
