<svg viewBox="0 0 96 96" fill="none" xmlns="http://www.w3.org/2000/svg">
    <rect x="28" y="16" width="40" height="64" rx="4" stroke="#003459" stroke-width="2"/>
    <path stroke="#003459" stroke-width="2" d="M32 24h32v48H32z"/>
    <path d="M36 64c0-2.2091 1.7909-4 4-4 2.2091 0 4 1.7909 4 4 0 2.2091-1.7909 4-4 4h-4v-4zM36 53c0-2.2091 1.7909-4 4-4h16c2.2091 0 4 1.7909 4 4 0 2.2091-1.7909 4-4 4H36v-4zM60 42c0-2.2091-1.7909-4-4-4h-8c-2.2091 0-4 1.7909-4 4 0 2.2091 1.7909 4 4 4h12v-4z" fill="#39B6ED"/>
</svg>
