<svg width="98" height="98" xmlns="http://www.w3.org/2000/svg">
    <g transform="translate(21 14)" fill="none" fill-rule="evenodd">
        <rect stroke="#003459" stroke-width="2" fill="#FFF" x="1" y="1" width="54" height="68" rx="4"/>
        <g transform="translate(26 38)">
            <circle stroke="#003459" stroke-width="2" fill="#39B6ED" cx="18" cy="18" r="17"/>
            <path d="M15.31801948 22.30330086l9.19238816-9.19238816c.3905243-.39052429 1.0236893-.39052425 1.41421356 0 .39052426.39052426.3905243 1.02368927 0 1.41421357l-9.89949493 9.89949493c-.39052426.39052426-1.02368931.39052426-1.41421357 0l-3.5355339-3.5355339c-.39052426-.39052426-.39052426-1.0236893 0-1.41421357.39052425-.39052425 1.0236893-.39052425 1.41421356 0l2.82842712 2.82842713z" fill="#FFF"/>
        </g>
        <g fill="#003459">
            <path d="M9 7h38c.5522847 0 1 .44771525 1 1s-.4477153 1-1 1H9c-.55228475 0-1-.44771525-1-1s.44771525-1 1-1zM9 13h38c.5522847 0 1 .44771525 1 1s-.4477153 1-1 1H9c-.55228475 0-1-.44771525-1-1s.44771525-1 1-1zM9 31h38c.5522847 0 1 .4477153 1 1s-.4477153 1-1 1H9c-.55228475 0-1-.4477153-1-1s.44771525-1 1-1zM9 25h38c.5522847 0 1 .44771525 1 1s-.4477153 1-1 1H9c-.55228475 0-1-.44771525-1-1s.44771525-1 1-1zM9 19h22c.5522847 0 1 .44771525 1 1s-.4477153 1-1 1H9c-.55228475 0-1-.44771525-1-1s.44771525-1 1-1z"/>
        </g>
    </g>
</svg>
