<svg width="96" height="96" xmlns="http://www.w3.org/2000/svg" viewBox="0 0 96 96">
	<path d="M32 46h32c1.1 0 2 .9 2 2v29c0 1.1-.9 2-2 2H32c-1.1 0-2-.9-2-2V48c0-1.1.9-2 2-2zm0 2v29h32V48H32zm4 2h3v27h-3V50zm21 0h3v27h-3V50zm-9-23c2.2 0 4-1.8 4-4s-1.8-4-4-4-4 1.8-4 4c0 .6-.4 1-1 1s-1-.4-1-1c0-3.3 2.7-6 6-6s6 2.7 6 6c0 3-2.2 5.4-5 5.9v1.6l21.1 10c2.5 1.2 3.6 4.2 2.4 6.7-.8 1.7-2.6 2.8-4.5 2.8h-4v-2h-4v2h-3v-2H39v2h-3v-2h-4v2h-4c-2.8 0-5-2.2-5-5 0-1.9 1.1-3.7 2.9-4.5l21.1-10V28c0-.6.4-1 1-1zM26.7 42.2c-1 .5-1.7 1.6-1.7 2.8 0 1.7 1.4 3 3 3h40c1.2 0 2.2-.7 2.7-1.7.7-1.5.1-3.3-1.4-4.1L48 32 26.7 42.2z" fill="#003459"/>
</svg>
