<svg xmlns="http://www.w3.org/2000/svg" width="440" height="440">
    <defs>
        <clipPath id="clip-path">
            <path id="Rectangle_45" data-name="Rectangle 45" transform="translate(145 1648)" style="stroke:#707070;fill:#fff" d="M0 0h440v440H0z"/>
        </clipPath>
        <style>
            .cls-4{fill:#fff}.cls-5{fill:#3f3d56}.cls-6{fill:#9ddbf7}.cls-7{fill:#e4e4e4}.cls-8{fill:#2f2e41}.cls-9{fill:#ffb7b7}
        </style>
    </defs>
    <g id="Mask_Group_7" data-name="Mask Group 7" transform="translate(-145 -1648)" style="clip-path:url(#clip-path)">
        <g id="undraw_Mobile_posts_re_bpuw" transform="translate(190.625 1681.298)">
            <path id="Path_11" data-name="Path 11" d="M72.492 17.472 69.759 48.6l-7.034-35.058a177.169 177.169 0 0 0-21.383-5.964C34.254 6.04 27.437 4.925 21.485 4.122 15.506 3.315 10.407 2.823 6.8 2.532s-5.735-.379-5.735-.379S.689 6.428.522 13.3a261.6 261.6 0 0 0 .712 26.85A168.3 168.3 0 0 0 6.76 72.607c3.047 10.593 7.485 20.311 13.887 27.34s12.793 11.885 19.116 14.927a38.333 38.333 0 0 0 18.548 3.976 41.842 41.842 0 0 0 17.4-4.891 67.455 67.455 0 0 0 15.735-11.639 67.628 67.628 0 0 0 12.033-15.24 42.889 42.889 0 0 0 5.508-16.9 39.938 39.938 0 0 0-2.657-18.352c-2.434-6.338-6.521-12.906-12.57-19.668a45.993 45.993 0 0 0-4.413-4.294A57.586 57.586 0 0 0 84.262 24c-1.8-1.218-3.687-2.369-5.653-3.455s-4.014-2.109-6.117-3.073z" transform="translate(.552 205.103)" style="fill:#f2f2f2"/>
            <path id="Path_12" data-name="Path 12" class="cls-4" d="m66.411 55.558 1.217 1.353q5.274 5.92 9.48 11.625a115.855 115.855 0 0 1 7.343 11.191 82.558 82.558 0 0 1 5.212 10.764 60.362 60.362 0 0 1 3.077 10.343l.03.147c.01.047.018.1.027.147l.027.147c.009.047.019.1.03.147l-.887.2-.856.179A57.517 57.517 0 0 0 87.8 90.719a82.917 82.917 0 0 0-5.526-11.034 119.046 119.046 0 0 0-7.312-10.857c-2.688-3.576-5.6-7.1-8.673-10.545L66 57.945l-.3-.338-.3-.337q-.15-.168-.306-.334-1.97-2.172-4.01-4.3t-4.131-4.2q-2.091-2.076-4.223-4.1t-4.284-3.976l-.333-.306-.336-.306-.339-.306-.34-.307q-2.857-2.571-5.713-5.017t-5.661-4.753q-2.805-2.306-5.527-4.457t-5.31-4.13l-.366-.28-.367-.278-.367-.275-.366-.273A405.063 405.063 0 0 0 8.311 8.747c-2.01-1.383-3.72-2.532-5.053-3.414S.964 3.833.451 3.506L.286 3.4l-.125-.083-.084-.054-.045-.029.5-.755v-.012l.506-.76.105.066.264.166.417.266q.246.158.565.367c.8.515 1.929 1.256 3.345 2.2s3.112 2.1 5.041 3.433 4.083 2.855 6.418 4.54 4.842 3.531 7.478 5.524l.358.273.363.275.365.278.365.28q2.1 1.6 4.284 3.316t4.428 3.527q2.242 1.813 4.529 3.723t4.586 3.9q.578.5 1.15 1t1.135 1q.564.5 1.12 1t1.1 1l.344.3.34.3.337.305.332.306q2.324 2.113 4.523 4.2t4.274 4.151q2.074 2.062 4.025 4.1t3.782 4.055z" transform="translate(.305 203.03)"/>
            <path id="Path_13" data-name="Path 13" class="cls-4" d="m24.975 12.1-.305.35-.309.351q-.156.176-.314.351t-.32.349q-.439.474-.891.937t-.915.915q-.464.452-.94.892t-.964.87a49.886 49.886 0 0 1-4.352 3.425 50.431 50.431 0 0 1-4.719 2.933A50.974 50.974 0 0 1 5.9 25.884a51.477 51.477 0 0 1-5.321 1.862l.024.468.024.469.024.471.024.475A53.41 53.41 0 0 0 6.314 27.7a52.908 52.908 0 0 0 5.339-2.525 52.332 52.332 0 0 0 4.992-3.086 51.753 51.753 0 0 0 4.6-3.615q.52-.458 1.028-.93t1-.954q.494-.483.974-.979t.947-1q.159-.172.316-.346t.311-.35q.154-.176.306-.353t.3-.354q1.24-1.453 2.361-2.988T30.9 7.073q.994-1.606 1.862-3.282t1.6-3.408L33.9.3l-.463-.089-.457-.086-.452-.086q-.709 1.629-1.538 3.2t-1.776 3.089q-.947 1.512-2.007 2.956T24.975 12.1z" transform="translate(0 209.202)"/>
            <path id="Path_14" data-name="Path 14" class="cls-4" d="M47.4 24.2q-.165.168-.333.333t-.337.328q-.17.163-.342.323t-.347.318l-.1.1-.107.1-.108.1-.107.1a49.571 49.571 0 0 1-9.75 6.873 50.293 50.293 0 0 1-11.056 4.351 50.758 50.758 0 0 1-11.866 1.653A50.878 50.878 0 0 1 .782 37.55l.064.492.065.492.067.492q.034.246.071.493a52.776 52.776 0 0 0 12.444 1.091 52.637 52.637 0 0 0 12.115-1.8 52.142 52.142 0 0 0 11.274-4.52 51.417 51.417 0 0 0 9.944-7.047l.141-.128.141-.129.14-.13.138-.132.347-.325.343-.326.339-.327.336-.329a50.406 50.406 0 0 0 4.718-5.46 50.009 50.009 0 0 0 3.85-6.012 49.686 49.686 0 0 0 2.939-6.467A49.463 49.463 0 0 0 62.242.649L61.819.5l-.424-.157-.425-.151-.427-.15a47.6 47.6 0 0 1-1.915 6.667 47.829 47.829 0 0 1-2.858 6.311 48.147 48.147 0 0 1-3.758 5.862A48.511 48.511 0 0 1 47.4 24.2z" transform="translate(1.365 216.667)"/>
            <path id="Path_15" data-name="Path 15" class="cls-4" d="M63.221 34.013q-.161.176-.324.35t-.328.346q-.165.172-.331.342l-.334.339-.362.36-.365.357q-.183.178-.368.353-.185.176-.373.349a49.515 49.515 0 0 1-13.34 8.8A49.944 49.944 0 0 1 31.89 49.7a50.029 50.029 0 0 1-15.834-.862A49.717 49.717 0 0 1 .9 42.81l.139.63.14.628.142.626q.072.312.147.624a51.583 51.583 0 0 0 15.473 5.607 51.86 51.86 0 0 0 16 .516A51.76 51.76 0 0 0 48.24 47.1a51.33 51.33 0 0 0 13.4-8.948q.187-.173.373-.348t.369-.351q.183-.176.363-.355t.355-.359q.172-.169.341-.339t.336-.342l.331-.344q.165-.172.327-.346a50.783 50.783 0 0 0 5.776-7.56 50.555 50.555 0 0 0 4.212-8.382A50.379 50.379 0 0 0 77 10.449a50.262 50.262 0 0 0 .877-9.343q-.216-.137-.434-.271t-.434-.264L76.567.31l-.446-.261a48.47 48.47 0 0 1-.7 9.252 48.569 48.569 0 0 1-2.431 8.9 48.742 48.742 0 0 1-4.09 8.317 48.972 48.972 0 0 1-5.679 7.495z" transform="translate(3.495 224.575)"/>
            <path id="Path_16" data-name="Path 16" class="cls-5" d="m152.826 77.45-2.99-43.35a27.087 27.087 0 0 0-2.584-9.755A29.63 29.63 0 0 0 133.314 10.4a26.732 26.732 0 0 0-9.754-2.553l-94.6-6.006a26.641 26.641 0 0 0-10.433 1.365 24.013 24.013 0 0 0-8.455 5.035A22.909 22.909 0 0 0 4.483 16.2a23.891 23.891 0 0 0-1.816 10.122L3.711 56.8l-1.793-.07.367 10.853 1.8.065.4 11.629-1.8-.056.563 16.839 1.808.044.252 7.358-1.808-.038.576 17.032 1.818.026 5.873 171.551a29.843 29.843 0 0 0 2.7 11.489 28.965 28.965 0 0 0 6.608 9.127 28.061 28.061 0 0 0 9.495 5.811 27.638 27.638 0 0 0 11.342 1.589l100.927-6.857a24.615 24.615 0 0 0 10.092-2.926 26.131 26.131 0 0 0 7.883-6.605 28.257 28.257 0 0 0 4.938-9.278 29.829 29.829 0 0 0 1.275-10.989l-12.036-174.54 1.564.032L154.38 77.5z" transform="translate(47.377)"/>
            <path id="Path_17" data-name="Path 17" class="cls-4" d="m115.393 7.008-11.934-.725a9.739 9.739 0 0 1 .7 2.14 8.99 8.99 0 0 1 .172 2.154 8.269 8.269 0 0 1-.352 2.072 7.724 7.724 0 0 1-.873 1.9 7.485 7.485 0 0 1-1.341 1.573 7.606 7.606 0 0 1-1.7 1.141 8.043 8.043 0 0 1-1.982.666 8.715 8.715 0 0 1-2.177.149L41.52 15.053a10.1 10.1 0 0 1-2.312-.4 10.656 10.656 0 0 1-2.17-.918 10.886 10.886 0 0 1-1.933-1.379 10.732 10.732 0 0 1-1.6-1.788 10.248 10.248 0 0 1-1.14-2.07 9.555 9.555 0 0 1-.6-2.193 8.83 8.83 0 0 1-.052-2.213 8.222 8.222 0 0 1 .513-2.131l-11.957-.73a19.859 19.859 0 0 0-7.79 1.045 17.906 17.906 0 0 0-6.294 3.78 17.1 17.1 0 0 0-4.146 5.951A17.851 17.851 0 0 0 .7 19.547l9.53 264.472a22.284 22.284 0 0 0 2.021 8.547 21.631 21.631 0 0 0 4.914 6.793 20.952 20.952 0 0 0 7.059 4.337 20.625 20.625 0 0 0 8.444 1.207l101.186-6.549a18.349 18.349 0 0 0 7.528-2.156 19.473 19.473 0 0 0 5.9-4.91 21.072 21.072 0 0 0 3.706-6.923 22.261 22.261 0 0 0 .967-8.219l-16.9-249.511a20.225 20.225 0 0 0-1.929-7.3A22.117 22.117 0 0 0 122.689 8.9a19.925 19.925 0 0 0-7.296-1.892z" transform="translate(56.955 7.359)"/>
            <path id="Path_18" data-name="Path 18" class="cls-6" d="M106.413 49.859 4.666 47.319a2.946 2.946 0 0 1-1.1-.243 3.067 3.067 0 0 1-.911-.609 3 3 0 0 1-.634-.885 2.793 2.793 0 0 1-.263-1.07L.106 2.681a2.485 2.485 0 0 1 .177-1.034 2.39 2.39 0 0 1 .56-.825A2.482 2.482 0 0 1 1.7.286 2.715 2.715 0 0 1 2.766.123l100.753 4.471a2.682 2.682 0 0 1 1 .246 2.95 2.95 0 0 1 .841.586 2.99 2.99 0 0 1 .6.84 2.777 2.777 0 0 1 .264 1.008L108.8 47.3a2.551 2.551 0 0 1-.136 1.013 2.332 2.332 0 0 1-.494.818 2.263 2.263 0 0 1-.777.541 2.38 2.38 0 0 1-.98.187z" transform="translate(73.566 48.097)"/>
            <path id="Path_19" data-name="Path 19" class="cls-6" d="M86.014 7.483 3.316 6.1a3.187 3.187 0 0 1-1.2-.258 3.327 3.327 0 0 1-1-.665 3.288 3.288 0 0 1-.7-.974 3.1 3.1 0 0 1-.29-1.182 2.888 2.888 0 0 1 .192-1.17A2.783 2.783 0 0 1 .934.9a2.819 2.819 0 0 1 .945-.627A2.976 2.976 0 0 1 3.058.059l82.6 1.585a2.922 2.922 0 0 1 1.123.25 3.184 3.184 0 0 1 .943.642 3.269 3.269 0 0 1 .667.938 3.126 3.126 0 0 1 .294 1.139 2.859 2.859 0 0 1-.153 1.131 2.633 2.633 0 0 1-.552.917 2.552 2.552 0 0 1-.867.611 2.658 2.658 0 0 1-1.099.211z" transform="translate(85.839 109.568)"/>
            <path id="Path_20" data-name="Path 20" class="cls-7" d="M86.592 7.537 3.63 6.683a3.462 3.462 0 0 1-1.315-.275A3.613 3.613 0 0 1 .457 4.619a3.4 3.4 0 0 1-.318-1.3 3.194 3.194 0 0 1 .209-1.29A3.1 3.1 0 0 1 2.056.287 3.256 3.256 0 0 1 3.347.044L86.2 1.124a3.174 3.174 0 0 1 1.228.267 3.454 3.454 0 0 1 1.032.7 3.562 3.562 0 0 1 .73 1.026 3.432 3.432 0 0 1 .322 1.249 3.161 3.161 0 0 1-.167 1.244 2.918 2.918 0 0 1-.6 1.012 2.817 2.817 0 0 1-.948.677 2.907 2.907 0 0 1-1.2.24z" transform="translate(86.183 124.448)"/>
            <path id="Path_21" data-name="Path 21" class="cls-7" d="m86.866 7.039-83.223-.33a3.449 3.449 0 0 1-1.319-.268A3.6 3.6 0 0 1 .459 4.65a3.423 3.423 0 0 1-.319-1.3 3.239 3.239 0 0 1 .21-1.3A3.139 3.139 0 0 1 2.063.276 3.266 3.266 0 0 1 3.358.023l83.109.559A3.16 3.16 0 0 1 87.7.843a3.434 3.434 0 0 1 1.035.7 3.554 3.554 0 0 1 .733 1.028 3.452 3.452 0 0 1 .323 1.256 3.2 3.2 0 0 1-.167 1.254 2.966 2.966 0 0 1-.605 1.019 2.85 2.85 0 0 1-.95.688 2.916 2.916 0 0 1-1.203.251z" transform="translate(86.821 139.716)"/>
            <path id="Path_22" data-name="Path 22" class="cls-7" d="M109.335 47.938 4.859 50.947a2.856 2.856 0 0 1-1.126-.2 2.926 2.926 0 0 1-.938-.6 2.954 2.954 0 0 1-.924-2.03L.113 3.727a2.793 2.793 0 0 1 .18-1.109 2.733 2.733 0 0 1 1.454-1.526 2.783 2.783 0 0 1 1.1-.233L106.272.021a2.585 2.585 0 0 1 1.028.206 2.813 2.813 0 0 1 .863.576 2.954 2.954 0 0 1 .613.859 2.924 2.924 0 0 1 .273 1.056l2.731 42.372a2.861 2.861 0 0 1-.137 1.084 2.67 2.67 0 0 1-.505.9 2.5 2.5 0 0 1-.8.619 2.446 2.446 0 0 1-1.003.245z" transform="translate(78.616 174.745)"/>
            <path id="Path_23" data-name="Path 23" class="cls-7" d="m88.658 6.859-84.93 3.205a3.37 3.37 0 0 1-1.348-.225 3.461 3.461 0 0 1-1.123-.711 3.573 3.573 0 0 1-.9-3.815 3.484 3.484 0 0 1 .689-1.139 3.4 3.4 0 0 1 1.059-.788 3.344 3.344 0 0 1 1.325-.321L88.241.111A3.078 3.078 0 0 1 89.5.332a3.309 3.309 0 0 1 1.057.686 3.522 3.522 0 0 1 .743 1.047 3.592 3.592 0 0 1 .332 1.3 3.5 3.5 0 0 1-.168 1.321 3.291 3.291 0 0 1-.616 1.1 3.082 3.082 0 0 1-.968.761 2.986 2.986 0 0 1-1.225.312z" transform="translate(91.017 236.855)"/>
            <path id="Path_24" data-name="Path 24" class="cls-7" d="m88.944 6.928-85.2 3.787A3.358 3.358 0 0 1 2.39 10.5a3.443 3.443 0 0 1-1.127-.709A3.537 3.537 0 0 1 .476 8.7a3.622 3.622 0 0 1-.115-2.75 3.54 3.54 0 0 1 .691-1.15A3.448 3.448 0 0 1 2.115 4a3.361 3.361 0 0 1 1.327-.332L88.525.133a3.068 3.068 0 0 1 1.261.215 3.294 3.294 0 0 1 1.06.684 3.515 3.515 0 0 1 .754 1.049 3.615 3.615 0 0 1 .333 1.31 3.544 3.544 0 0 1-.168 1.332 3.344 3.344 0 0 1-.617 1.11 3.123 3.123 0 0 1-.971.773 3 3 0 0 1-1.233.322z" transform="translate(91.69 252.328)"/>
            <path id="Path_25" data-name="Path 25" class="cls-7" d="M89.233 7 3.755 11.374a3.349 3.349 0 0 1-1.355-.21 3.423 3.423 0 0 1-1.131-.707 3.533 3.533 0 0 1-.791-1.093 3.634 3.634 0 0 1 .578-3.934 3.491 3.491 0 0 1 1.066-.814 3.375 3.375 0 0 1 1.331-.344L88.81.154a3.056 3.056 0 0 1 1.265.208 3.272 3.272 0 0 1 1.064.682 3.51 3.51 0 0 1 .753 1.056 3.641 3.641 0 0 1 .335 1.317 3.593 3.593 0 0 1-.168 1.343 3.4 3.4 0 0 1-.619 1.122 3.165 3.165 0 0 1-.974.786A3.011 3.011 0 0 1 89.233 7z" transform="translate(92.368 267.91)"/>
            <path id="Path_26" data-name="Path 26" class="cls-8" d="M37.694 26.478c-.377-1.8-.771-3.623-1.232-5.437a53.754 53.754 0 0 0-1.628-5.354 31.588 31.588 0 0 0-2.319-5 22.311 22.311 0 0 0-3.308-4.389A19.473 19.473 0 0 0 26.525 4a18.613 18.613 0 0 0-2.98-1.721 17.476 17.476 0 0 0-3.187-1.108 16.264 16.264 0 0 0-3.3-.45 15.162 15.162 0 0 0-3.249.243 14.353 14.353 0 0 0-3.036.917A13.919 13.919 0 0 0 5.7 5.6a15.18 15.18 0 0 0-2.07 3.135 18.957 18.957 0 0 0-1.35 3.611 24.015 24.015 0 0 0-.688 3.918 29.018 29.018 0 0 0-.092 4.061 38.69 38.69 0 0 0 .422 4.075c.209 1.358.481 2.714.8 4.068s.68 2.7 1.068 4.05.8 2.688 1.226 4.023a45.446 45.446 0 0 0 5.109-.044 43.717 43.717 0 0 0 4.981-.612 42.28 42.28 0 0 0 4.809-1.168A41.1 41.1 0 0 0 24.509 33q.546-.276 1.1-.526T26.738 32q.568-.226 1.147-.426t1.166-.375a2.738 2.738 0 0 1 1.14-.035 4.214 4.214 0 0 1 1.073.362c.353.167.706.372 1.069.586s.735.435 1.128.637l.693-1.648a1.69 1.69 0 0 0 .787.708 2 2 0 0 0 1.014.148 2.323 2.323 0 0 0 .989-.34 1.984 1.984 0 0 0 .712-.756 3.341 3.341 0 0 0 .326-1 5.3 5.3 0 0 0 .057-1.1 9.856 9.856 0 0 0-.125-1.144 27.616 27.616 0 0 0-.22-1.139z" transform="translate(217.772 58.89)"/>
            <path id="Path_27" data-name="Path 27" class="cls-9" d="M21.468 21.12 17 25.06.49 6.358 7.169.621z" transform="translate(312.417 265.894)"/>
            <path id="Path_28" data-name="Path 28" class="cls-8" d="M17.568 7.117 3.113 19.937l-.153-.218a9.335 9.335 0 0 1-1.38-3.01 9.608 9.608 0 0 1-.273-3.21 8.863 8.863 0 0 1 .8-3.028A7.565 7.565 0 0 1 3.947 8L12.773.243z" transform="translate(321.04 284.037)"/>
            <path id="Path_29" data-name="Path 29" class="cls-9" d="m11.145 26.176-6.134.4L0 .479 9.02 0z" transform="translate(259.698 274.754)"/>
            <path id="Path_30" data-name="Path 30" class="cls-8" d="M20.584 8.848.689 10.2l-.022-.284a9.427 9.427 0 0 1 .353-3.41 8.651 8.651 0 0 1 1.458-2.855 7.671 7.671 0 0 1 2.328-2.008 7.024 7.024 0 0 1 2.966-.87L19.863 0z" transform="translate(252.358 298.602)"/>
            <path id="Path_31" data-name="Path 31" class="cls-9" d="M34.107 23.226 9.516 5.482a4.983 4.983 0 0 0-.26-1.836A5.33 5.33 0 0 0 7.015.829 4.9 4.9 0 0 0 5.291.172a4.422 4.422 0 0 0-1.783.046A4.115 4.115 0 0 0 .87 2.195 4.43 4.43 0 0 0 .323 3.9 4.909 4.909 0 0 0 .47 5.744a5.332 5.332 0 0 0 2.09 2.95 4.969 4.969 0 0 0 1.7.759c.783.655 2.812 2.555 5.461 5.019s5.909 5.483 9.164 8.384 6.493 5.674 9.107 7.654 4.595 3.16 5.335 2.874a29.723 29.723 0 0 1 3.816-.986c1.667-.352 3.6-.712 5.447-1.036s3.581-.61 4.863-.815 2.1-.33 2.1-.33l-.624-13.276z" transform="translate(179.701 103.211)"/>
            <path id="Path_32" data-name="Path 32" class="cls-8" d="M.255 3.383 2.809 34.3s.531 2.881 1.366 7.329 1.98 10.489 3.2 16.779 2.529 12.868 3.682 18.354 2.158 9.905 2.775 11.878 1.729 5.743 3.05 10.291 2.857 9.889 4.316 14.983 2.846 9.962 3.866 13.549l1.677 5.9 11.987-2.89L27.041 82.64l-.818-39.288 16.609 38.8 36.955 37.632 7.657-8.076-33.1-46.267L42.158 27.2s-.035-1.234-.254-3.2a58.306 58.306 0 0 0-1.351-7.589 39.885 39.885 0 0 0-3.332-8.981 21.055 21.055 0 0 0-6.21-7.414z" transform="translate(234.019 154.81)"/>
            <path id="Ellipse_1" data-name="Ellipse 1" class="cls-9" d="M13.018.523a13.393 13.393 0 0 1 5.11 1.258 15.157 15.157 0 0 1 4.317 3.04A15.858 15.858 0 0 1 25.536 9.2a15.065 15.065 0 0 1 1.427 5.275 13.334 13.334 0 0 1-.589 5.219 11.759 11.759 0 0 1-2.417 4.217 11.1 11.1 0 0 1-3.88 2.789 11.681 11.681 0 0 1-4.971.926A13.346 13.346 0 0 1 9.948 26.4a15.135 15.135 0 0 1-4.381-3.05 15.856 15.856 0 0 1-3.136-4.429 15.049 15.049 0 0 1-1.426-5.343 13.294 13.294 0 0 1 .638-5.26 11.723 11.723 0 0 1 2.482-4.202 11.1 11.1 0 0 1 3.924-2.735 11.721 11.721 0 0 1 4.969-.858z" transform="translate(220.988 64.273)"/>
            <path id="Rectangle_16" data-name="Rectangle 16" class="cls-8" d="M0 11.746 4 0l14.652 6.722-3.911 11.724z" transform="translate(241.015 163.123)"/>
            <path id="Path_34" data-name="Path 34" class="cls-7" d="M32.323 9.2c-.443-.806-.841-1.657-1.24-2.5s-.8-1.672-1.25-2.436A9.646 9.646 0 0 0 28.3 2.228 5.5 5.5 0 0 0 26.19.915 9.936 9.936 0 0 0 23.5.624 39.674 39.674 0 0 0 19.611.8a38.754 38.754 0 0 0-3.839.533 9.159 9.159 0 0 0-2.523.77 2.691 2.691 0 0 0-1.355 1.733 6.113 6.113 0 0 0 .006 2.233 22.87 22.87 0 0 1 .285 2.519 5.38 5.38 0 0 1-.52 2.6l-1.4 2.8L8.863 16.8l-1.407 2.81-1.41 2.823c-.324.648-.648 1.3-.963 1.956s-.618 1.322-.9 2-.542 1.361-.769 2.062a19.5 19.5 0 0 0-.567 2.15 15.454 15.454 0 0 0-.284 2.258 14.055 14.055 0 0 0 .069 2.31 12.152 12.152 0 0 0 .478 2.27 10.545 10.545 0 0 0 .94 2.139 13.348 13.348 0 0 0 1.213 1.72c.444.544.918 1.066 1.392 1.588s.948 1.043 1.393 1.587a13.469 13.469 0 0 1 1.216 1.716 7.837 7.837 0 0 1 .613 3.262 40.412 40.412 0 0 1-.177 4.908 60.4 60.4 0 0 1-.641 4.935 20.086 20.086 0 0 1-.787 3.306l.6.284q3.021.184 6.024.22t5.97-.075q2.967-.111 5.906-.368t5.832-.657c.479-.066.962-.138 1.441-.226a14.157 14.157 0 0 0 1.412-.329 8.6 8.6 0 0 0 1.332-.506 6.2 6.2 0 0 0 1.2-.755 6.32 6.32 0 0 0 1.375-1.574 9.388 9.388 0 0 0 .911-1.958 15.88 15.88 0 0 0 .561-2.188c.141-.75.243-1.513.325-2.263a70.431 70.431 0 0 0 .29-11.035 73.057 73.057 0 0 0-1.408-10.97 75.127 75.127 0 0 0-3.06-10.723A76.4 76.4 0 0 0 32.323 9.2z" transform="translate(225.451 95.799)"/>
            <path id="Path_35" data-name="Path 35" class="cls-7" d="M12.624 34.655c.823-.92 1.646-1.841 2.458-2.77s1.611-1.865 2.389-2.818S19 27.145 19.725 26.15s1.41-2.013 2.055-3.065a36.984 36.984 0 0 0 1.785-3.263A31.879 31.879 0 0 0 25 16.36a27.764 27.764 0 0 0 .987-3.637 24.889 24.889 0 0 0 .457-3.79 10.875 10.875 0 0 0 .029-1.233 11.239 11.239 0 0 0-.107-1.243 11.573 11.573 0 0 0-.245-1.235A11.86 11.86 0 0 0 25.739 4a6.84 6.84 0 0 0-.61-1.135 6.392 6.392 0 0 0-.814-.994 5.25 5.25 0 0 0-.984-.773 4.115 4.115 0 0 0-1.119-.469 3.822 3.822 0 0 0-1.8-.019 5.213 5.213 0 0 0-1.637.711A9.666 9.666 0 0 0 17.3 2.5c-.463.443-.9.92-1.3 1.388l-3.59 4.153-3.61 4.174-3.632 4.2-3.652 4.22 2.784 3.53L7.091 27.7l2.786 3.53 2.784 3.528z" transform="translate(221.008 101.207)"/>
            <path id="Path_36" data-name="Path 36" class="cls-9" d="M32.154 17.746a38.3 38.3 0 0 1-1.261-3.987c-.48-1.738-.994-3.758-1.465-5.679S28.527 4.343 28.216 3s-.5-2.2-.5-2.2L15.445.237l7.3 15.892L8.208 40.876l.007.01.019.03.031.048.042.065a4.135 4.135 0 0 0-1.334-.007 3.949 3.949 0 0 0-2.248 1.187 4.222 4.222 0 0 0-.757 1.114 4.622 4.622 0 0 0-.393 1.332 5.034 5.034 0 0 0 0 1.4 5.316 5.316 0 0 0 1.147 2.613 5.082 5.082 0 0 0 1.055.973 4.7 4.7 0 0 0 1.227.6 4.3 4.3 0 0 0 1.31.208 4.005 4.005 0 0 0 1.3-.216 3.927 3.927 0 0 0 1.153-.628 4.091 4.091 0 0 0 .881-.959 4.431 4.431 0 0 0 .559-1.214 4.84 4.84 0 0 0 .193-1.392.312.312 0 0 0 .1.038.283.283 0 0 0 .1 0 .27.27 0 0 0 .094-.037.278.278 0 0 0 .076-.072c.413-.626 1.933-2.527 3.953-5.07s4.522-5.7 6.928-8.882 4.692-6.344 6.3-8.924 2.539-4.555 2.203-5.347z" transform="translate(240.025 121.27)"/>
            <path id="Path_37" data-name="Path 37" class="cls-7" d="M24.6 30.181c-.386-1.267-.772-2.534-1.17-3.8s-.808-2.524-1.241-3.776-.888-2.495-1.379-3.725-1.014-2.446-1.584-3.645-1.189-2.382-1.861-3.534a39.842 39.842 0 0 0-2.176-3.346 33.148 33.148 0 0 0-2.511-3.066A27.822 27.822 0 0 0 9.81 2.6a11.559 11.559 0 0 0-.987-.776 11.228 11.228 0 0 0-1.052-.655A10.809 10.809 0 0 0 6.666.64 10.39 10.39 0 0 0 5.518.247a5.443 5.443 0 0 0-1.18-.139 4.766 4.766 0 0 0-1.153.13 3.874 3.874 0 0 0-1.047.417 3.272 3.272 0 0 0-.858.721 3.779 3.779 0 0 0-.78 1.61 6.413 6.413 0 0 0-.11 1.905 12.816 12.816 0 0 0 .34 2.038c.165.683.371 1.361.581 2.007l1.859 5.718 1.861 5.726 1.864 5.734 1.866 5.742 4.005-.414 3.99-.413 3.975-.411 3.96-.41z" transform="translate(248.081 100.149)"/>
            <path id="Path_38" data-name="Path 38" class="cls-8" d="M30.7 20.37c-.166-.817-.333-1.636-.509-2.453s-.36-1.631-.561-2.44-.418-1.612-.659-2.406-.506-1.579-.8-2.352-.628-1.534-.994-2.271a21.214 21.214 0 0 0-1.2-2.119 16.349 16.349 0 0 0-1.416-1.88 12.263 12.263 0 0 0-1.629-1.555 10.092 10.092 0 0 0-2.88-1.594 10.557 10.557 0 0 0-3.028-.581 13.276 13.276 0 0 0-3.052.22 17.422 17.422 0 0 0-2.94.827 20.344 20.344 0 0 0-2.164.952 16.481 16.481 0 0 0-2.05 1.244 14.082 14.082 0 0 0-1.862 1.586 13.071 13.071 0 0 0-1.6 1.979 12.8 12.8 0 0 0-1.234 2.418 14.439 14.439 0 0 0-.952 5.738 13.381 13.381 0 0 0 .463 3.017l3.094-.806 3.084-.8 3.074-.8 3.064-.8-.426.38a10.931 10.931 0 0 1 2.011 1.56 13.688 13.688 0 0 1 1.73 2.066 15.514 15.514 0 0 1 1.371 2.454 15.9 15.9 0 0 1 1.348 5.528 14.91 14.91 0 0 1-.093 2.759 13.98 13.98 0 0 1-.6 2.637 13.142 13.142 0 0 1-1.1 2.44l2.062-.879 2.057-.877 2.053-.875 2.048-.873a23.68 23.68 0 0 0 1.267-.574 9.437 9.437 0 0 0 1.211-.709 5.929 5.929 0 0 0 1.058-.937 5.018 5.018 0 0 0 .81-1.257 6.414 6.414 0 0 0 .494-1.807 10.906 10.906 0 0 0 .06-2 20.394 20.394 0 0 0-.232-2.087 45.209 45.209 0 0 0-.378-2.073z" transform="translate(220.543 59.53)"/>
            <path id="Path_39" data-name="Path 39" class="cls-6" d="M13.225 3.99 5.334 17.354a2.079 2.079 0 0 1-.344.439 2.042 2.042 0 0 1-.44.325 2.077 2.077 0 0 1-.513.2 2.174 2.174 0 0 1-.564.059 2.331 2.331 0 0 1-.681-.116 2.507 2.507 0 0 1-.623-.305 2.646 2.646 0 0 1-.917-1.075q-.027-.055-.051-.111t-.045-.113q-.021-.057-.039-.115t-.033-.116a2.515 2.515 0 0 1-.074-.467 2.4 2.4 0 0 1 .015-.461 2.286 2.286 0 0 1 .1-.442 2.173 2.173 0 0 1 .188-.409l7.93-13.361a2.022 2.022 0 0 1 .6-.643 2.053 2.053 0 0 1 .789-.322 2.234 2.234 0 0 1 .877.018 2.476 2.476 0 0 1 .864.375 2.649 2.649 0 0 1 1.073 1.519 2.445 2.445 0 0 1 .065.9 2.182 2.182 0 0 1-.286.856z" transform="translate(177.375 95.599)"/>
            <path id="Path_40" data-name="Path 40" class="cls-5" d="m7.217 2.773-1.61 2.708L2.621 8.3a1.129 1.129 0 0 1-.34.221 1.173 1.173 0 0 1-.391.089 1.263 1.263 0 0 1-.408-.046 1.364 1.364 0 0 1-.392-.182 1.448 1.448 0 0 1-.538-.672 1.391 1.391 0 0 1-.093-.414A1.291 1.291 0 0 1 .5 6.872l1.126-4.151L3.2.064z" transform="translate(176.132 109.096)"/>
            <path id="Path_41" data-name="Path 41" class="cls-5" d="M5.92.481 1.8 4.328a1.112 1.112 0 0 0-.178.214 1.161 1.161 0 0 0-.12.251 1.226 1.226 0 0 0-.059.278 1.313 1.313 0 0 0 .006.294 1.384 1.384 0 0 0 .071.291 1.441 1.441 0 0 0 .131.27 1.457 1.457 0 0 0 .184.238 1.437 1.437 0 0 0 .232.2l.867.589L.775 10.6a.488.488 0 0 0-.064.191.546.546 0 0 0 .014.2.589.589 0 0 0 .239.339.55.55 0 0 0 .193.083.5.5 0 0 0 .2 0 .458.458 0 0 0 .176-.072.453.453 0 0 0 .134-.144l2.155-3.646.867.588a1.348 1.348 0 0 0 .47.2 1.218 1.218 0 0 0 .477.009 1.118 1.118 0 0 0 .429-.175 1.1 1.1 0 0 0 .327-.349q.02-.035.038-.071t.033-.073q.016-.037.028-.076l.024-.078L8.009 1.9a1.262 1.262 0 0 0 .038-.414 1.383 1.383 0 0 0-.093-.407 1.45 1.45 0 0 0-.531-.661 1.363 1.363 0 0 0-.385-.183 1.248 1.248 0 0 0-.4-.05 1.144 1.144 0 0 0-.384.083 1.089 1.089 0 0 0-.334.213z" transform="translate(184.597 92.058)"/>
            <path id="Path_42" data-name="Path 42" d="M349.921 1.318.779 25.2a.726.726 0 0 1-.292-.039.7.7 0 0 1-.406-.371.726.726 0 0 1-.065-.287.766.766 0 0 1 .052-.3.8.8 0 0 1 .389-.425.767.767 0 0 1 .289-.078L349.794.038a.5.5 0 0 1 .22.036.585.585 0 0 1 .186.126.688.688 0 0 1 .139.2.746.746 0 0 1 .068.246.723.723 0 0 1-.019.252.635.635 0 0 1-.1.212.536.536 0 0 1-.162.149.477.477 0 0 1-.21.065z" transform="translate(2.482 301.88)" style="opacity:.2;fill:#3f3d56"/>
            <path id="Path_43" data-name="Path 43" class="cls-4" d="M15.4 2.972 1.164 2.135a1.154 1.154 0 0 1-.417-.106A1.235 1.235 0 0 1 .4 1.787a1.2 1.2 0 0 1-.244-.343 1.084 1.084 0 0 1-.1-.408.953.953 0 0 1 .063-.4.89.89 0 0 1 .207-.314A.917.917 0 0 1 .652.12 1.021 1.021 0 0 1 1.06.063l14.226.85a1.138 1.138 0 0 1 .412.105 1.226 1.226 0 0 1 .345.24 1.2 1.2 0 0 1 .242.34 1.087 1.087 0 0 1 .1.405.952.952 0 0 1-.061.4.881.881 0 0 1-.207.314.9.9 0 0 1-.321.2 1 1 0 0 1-.396.055z" transform="translate(114.118 13.265)"/>
            <path id="Ellipse_2" data-name="Ellipse 2" class="cls-4" d="M1.042.062a1.129 1.129 0 0 1 .41.1 1.221 1.221 0 0 1 .343.24 1.2 1.2 0 0 1 .241.339 1.087 1.087 0 0 1 .1.4.952.952 0 0 1-.06.395.878.878 0 0 1-.205.313.893.893 0 0 1-.319.2.992.992 0 0 1-.4.057 1.129 1.129 0 0 1-.41-.1A1.22 1.22 0 0 1 .4 1.771a1.2 1.2 0 0 1-.241-.34 1.087 1.087 0 0 1-.1-.4.952.952 0 0 1 .057-.399.878.878 0 0 1 .206-.313.893.893 0 0 1 .319-.2.992.992 0 0 1 .401-.057z" transform="translate(135.411 14.536)"/>
        </g>
    </g>
</svg>
