<svg xmlns="http://www.w3.org/2000/svg" width="440" height="440">
    <defs>
        <clipPath id="clip-path">
            <path id="Rectangle_46" data-name="Rectangle 46" transform="translate(153 2402)" style="stroke:#707070;fill:#fff" d="M0 0h440v440H0z"/>
        </clipPath>
        <style>
            .cls-7{fill:#fff}.cls-3{fill:#feb8b8}.cls-4{fill:#2f2e41}.cls-5{fill:#ccc}.cls-6{fill:#3f3d56}.cls-8{fill:#e6e6e6}.cls-9{fill:#9ddbf7}.cls-10{fill:#f2f2f2}
        </style>
    </defs>
    <g id="Mask_Group_6" data-name="Mask Group 6" transform="translate(-153 -2402)" style="clip-path:url(#clip-path)">
        <g id="Group_60" data-name="Group 60" transform="translate(52 30.874)">
            <g id="Group_28" data-name="Group 28" transform="translate(402.444 2507.724)">
                <path id="Path_409" data-name="Path 409" class="cls-3" d="m12.308 29.4-7.27.427L0 .494 10.681 0z" transform="translate(10.751 242.965)"/>
                <path id="Path_410" data-name="Path 410" class="cls-4" d="M24.106 9.946.508 11.409l-.016-.317a10.208 10.208 0 0 1 .537-3.837 9.909 9.909 0 0 1 1.825-3.208A9.342 9.342 0 0 1 5.68 1.8 8.83 8.83 0 0 1 9.222.827L23.552 0z" transform="translate(1.214 269.758)"/>
                <path id="Path_411" data-name="Path 411" class="cls-3" d="m17.667 27.489-6.433 2.065L.177 3.174 9.688.263z" transform="translate(91.732 234.955)"/>
                <path id="Path_412" data-name="Path 412" class="cls-4" d="M22.2 9.29 1.347 16.064l-.085-.292a10.206 10.206 0 0 1-.373-3.71 9.819 9.819 0 0 1 .926-3.421 8.936 8.936 0 0 1 2.04-2.755 8.068 8.068 0 0 1 2.968-1.719L19.509.11z" transform="translate(90.847 259.495)"/>
                <path id="Path_413" data-name="Path 413" class="cls-4" d="M14.888 48.789c-.017-.365-.121-2.792-.137-6.427s.059-8.454.4-13.626a115.772 115.772 0 0 1 1.984-15.649c1.038-4.978 2.511-9.456 4.593-12.606L21.851.3l31.366 4.788-.238 6.976a29.644 29.644 0 0 1 2.686 3.036 56.587 56.587 0 0 1 4.865 7.37 80.791 80.791 0 0 1 5.51 12.247 109.793 109.793 0 0 1 4.637 17.712l38.985 92.193-14.945 2.245L42.588 45.629 24.5 159.771l-16.11.876z" transform="translate(0 102.128)"/>
                <path id="Path_414" data-name="Path 414" class="cls-5" d="m3.116 55.267 2.149-16.376c-.162-.2-.463-.588-.818-1.127A16.567 16.567 0 0 1 3.3 35.732a13.7 13.7 0 0 1-.959-2.708 10.289 10.289 0 0 1-.261-3.15A8.705 8.705 0 0 1 2.5 27.8a8.873 8.873 0 0 1 .91-1.92 10.512 10.512 0 0 1 1.4-1.759 13.823 13.823 0 0 1 1.88-1.591l6.789-18.324.1-.059a23.93 23.93 0 0 1 2.285-1.128 27.248 27.248 0 0 1 5.053-1.655A16.884 16.884 0 0 1 27.19 1.1a10.836 10.836 0 0 1 5.98 3.013 32.849 32.849 0 0 1 2.72 2.524 43.23 43.23 0 0 1 5.4 6.741 31.762 31.762 0 0 1 4.355 10.047 24.25 24.25 0 0 1-.406 12.515l-6.532 25.246z" transform="translate(14.986 48.534)"/>
                <path id="Path_415" data-name="Path 415" class="cls-3" d="M7.8 23.728a5.512 5.512 0 0 0 1.227-.284 5.361 5.361 0 0 0 2.816-2.318 5.543 5.543 0 0 0 .516-1.149 5.764 5.764 0 0 0 .248-1.235 5.99 5.99 0 0 0-.023-1.276 6.213 6.213 0 0 0-.3-1.272L28.13 4.188 18.053.242l-13.614 12a5.375 5.375 0 0 0-1.775 1.108A5.451 5.451 0 0 0 1.468 15a5.739 5.739 0 0 0-.528 2.013 6.106 6.106 0 0 0 .232 2.178 6.428 6.428 0 0 0 2.538 3.5 6.212 6.212 0 0 0 1.94.888 5.812 5.812 0 0 0 2.146.152z" transform="translate(.719 102.475)"/>
                <path id="Path_416" data-name="Path 416" class="cls-5" d="M3.14 57.521 27.093 37.8 18.2 12.033a9.733 9.733 0 0 1-.443-1.863 9.23 9.23 0 0 1-.063-1.86A8.709 8.709 0 0 1 18 6.513a8.268 8.268 0 0 1 .683-1.677 7.37 7.37 0 0 1 .95-1.382 7.258 7.258 0 0 1 1.217-1.113 7.347 7.347 0 0 1 1.441-.813 7.608 7.608 0 0 1 1.62-.482 7.827 7.827 0 0 1 3.079.05 9.224 9.224 0 0 1 2.991 1.267 14.842 14.842 0 0 1 2.9 2.476 26.325 26.325 0 0 1 2.794 3.679l.029.052c.158.344 1.2 2.628 2.523 5.963s2.941 7.73 4.247 12.29a55.8 55.8 0 0 1 2.4 13.325c.1 4.029-.719 7.341-3.046 9.04a87.618 87.618 0 0 1-8.683 5.373c-3.344 1.858-6.953 3.712-10.292 5.365s-6.428 3.113-8.685 4.161-3.7 1.69-3.752 1.715l-.261.116z" transform="translate(7.374 48.907)"/>
                <path id="Ellipse_66" data-name="Ellipse 66" class="cls-3" d="M14.79.749A15.61 15.61 0 0 1 20.57 2.2a17.3 17.3 0 0 1 8.272 8.224 16 16 0 0 1 1.521 5.8 14.178 14.178 0 0 1-.767 5.714 12.9 12.9 0 0 1-2.825 4.594 12.727 12.727 0 0 1-4.46 3.012 13.743 13.743 0 0 1-5.667.956 15.56 15.56 0 0 1-5.844-1.4 17.078 17.078 0 0 1-4.925-3.4 17.256 17.256 0 0 1-3.481-4.9 15.979 15.979 0 0 1-1.517-5.887 14.137 14.137 0 0 1 .829-5.763 12.876 12.876 0 0 1 2.905-4.581 12.745 12.745 0 0 1 4.515-2.947A13.8 13.8 0 0 1 14.79.749z" transform="translate(23.392 15.247)"/>
                <path id="Ellipse_67" data-name="Ellipse 67" class="cls-4" d="M12.776.737a13.555 13.555 0 0 1 5 1.292A15.045 15.045 0 0 1 21.987 5a15.266 15.266 0 0 1 2.988 4.225 14.082 14.082 0 0 1 1.343 5.05 12.3 12.3 0 0 1-.638 4.959 11.015 11.015 0 0 1-2.422 3.97 10.793 10.793 0 0 1-3.841 2.583 11.746 11.746 0 0 1-4.891.788 13.512 13.512 0 0 1-5.051-1.255 15.03 15.03 0 0 1-4.267-2.985 15.265 15.265 0 0 1-3.029-4.274A14.066 14.066 0 0 1 .837 12.95a12.266 12.266 0 0 1 .684-5A10.991 10.991 0 0 1 4 4a10.807 10.807 0 0 1 3.887-2.537 11.792 11.792 0 0 1 4.889-.726z" transform="translate(47.111)"/>
                <path id="Path_417" data-name="Path 417" class="cls-4" d="M20.492 13.09a10.835 10.835 0 0 1-2.548 1.375 11.476 11.476 0 0 1-2.836.673 12.441 12.441 0 0 1-3-.046 13.539 13.539 0 0 1-3.034-.781 14.541 14.541 0 0 1-2.851-1.478 15.187 15.187 0 0 1-2.471-2.058 15.314 15.314 0 0 1-1.991-2.539A14.876 14.876 0 0 1 .349 5.321a14.383 14.383 0 0 0 1.157 3.525 15.178 15.178 0 0 0 2 3.126 15.274 15.274 0 0 0 2.7 2.557 14.636 14.636 0 0 0 3.254 1.82 13.5 13.5 0 0 0 3.514.892 12.251 12.251 0 0 0 3.438-.092 11.231 11.231 0 0 0 3.169-1.039 10.7 10.7 0 0 0 2.699-1.95 10.822 10.822 0 0 0 1.983-2.692A11.565 11.565 0 0 0 25.36 8.3a12.707 12.707 0 0 0 .179-3.45 13.942 13.942 0 0 0-.774-3.544 13.193 13.193 0 0 1 .213 3.451 12 12 0 0 1-.678 3.225 11.086 11.086 0 0 1-1.514 2.833 10.656 10.656 0 0 1-2.294 2.275z" transform="translate(51.952 11.776)"/>
                <path id="Path_418" data-name="Path 418" class="cls-4" d="M.607 10.419c.516-1 .952-1.861 1.359-2.619s.785-1.416 1.188-2.022a13.929 13.929 0 0 1 1.327-1.711 17.907 17.907 0 0 1 1.777-1.681 8.26 8.26 0 0 1 1.97-1.237 6.388 6.388 0 0 1 2.118-.536A5.623 5.623 0 0 1 12.5.88a6.5 6.5 0 0 1 2.1 1.173 14.274 14.274 0 0 1 4.873-.993 15.857 15.857 0 0 1 4.966.664A17.358 17.358 0 0 1 29.1 3.919a18.162 18.162 0 0 1 3.976 3.6 17.942 17.942 0 0 1 2.742 4.585 16.8 16.8 0 0 1 1.2 4.95 15.213 15.213 0 0 1-.376 4.917 13.8 13.8 0 0 1-1.994 4.482 13.181 13.181 0 0 1-3.414 3.434 13.594 13.594 0 0 1-4.354 1.97 14.811 14.811 0 0 1-4.915.4 16.4 16.4 0 0 1-5.088-1.286 17.765 17.765 0 0 1-4.577-2.862 18.248 18.248 0 0 1-3.48-4.014A17.6 17.6 0 0 1 6.679 19.3a16.107 16.107 0 0 1-.563-5.195 3.575 3.575 0 0 1-1.5-.693 11.444 11.444 0 0 1-1.251-1.148 11.5 11.5 0 0 0-1.252-1.149 3.6 3.6 0 0 0-1.506-.696z" transform="translate(20.82 12.035)"/>
            </g>
            <g id="Group_46" data-name="Group 46" transform="translate(108.861 2377.376)">
                <g id="Group_29" data-name="Group 29" transform="translate(97.252 100.997)">
                    <path id="Path_339" data-name="Path 339" class="cls-6" d="m151.051 74.972-1.529-.017-3.354-43.92a27.85 27.85 0 0 0-2.637-9.838 29.34 29.34 0 0 0-5.768-8.152 28.347 28.347 0 0 0-8.094-5.672 25.461 25.461 0 0 0-9.632-2.363L26.8 1.119a25.691 25.691 0 0 0-10.266 1.63 23.98 23.98 0 0 0-8.279 5.306 23.724 23.724 0 0 0-5.43 8.212 25.069 25.069 0 0 0-1.694 10.308L12.595 296a30.749 30.749 0 0 0 2.771 11.6 28.792 28.792 0 0 0 6.6 9.108 27 27 0 0 0 9.408 5.675 26.348 26.348 0 0 0 11.188 1.347l99.354-9.32a24.011 24.011 0 0 0 9.913-3.206 26.5 26.5 0 0 0 7.7-6.887 29.481 29.481 0 0 0 4.776-9.531 31.283 31.283 0 0 0 1.152-11.181l-13.5-176.833h1.539z" transform="translate(23.924 -.001)"/>
                    <path id="Path_340" data-name="Path 340" class="cls-7" d="m135.4 24.356 19.311 256.722a23.748 23.748 0 0 1-.888 8.5 22.371 22.371 0 0 1-3.639 7.231 20.094 20.094 0 0 1-5.85 5.212 18.19 18.19 0 0 1-7.51 2.414l-101.3 9.277a20.006 20.006 0 0 1-8.477-1.036 20.48 20.48 0 0 1-7.118-4.3 21.837 21.837 0 0 1-4.99-6.893 23.339 23.339 0 0 1-2.105-8.776L.882 20.12a18.994 18.994 0 0 1 1.27-7.8A17.976 17.976 0 0 1 6.253 6.1a18.18 18.18 0 0 1 6.27-4.035A19.493 19.493 0 0 1 20.314.809l11.972.477a8.76 8.76 0 0 0-.492 2.207 9.353 9.353 0 0 0 .074 2.278 9.969 9.969 0 0 0 .625 2.244 10.474 10.474 0 0 0 1.159 2.105 10.742 10.742 0 0 0 3.566 3.18 10.363 10.363 0 0 0 2.18.9 9.8 9.8 0 0 0 2.317.366l54.448 1.872a8.507 8.507 0 0 0 2.175-.2 7.994 7.994 0 0 0 1.974-.732 7.757 7.757 0 0 0 3.017-2.863 8.189 8.189 0 0 0 .855-1.97 8.8 8.8 0 0 0 .333-2.141 9.493 9.493 0 0 0-.191-2.213 10.119 10.119 0 0 0-.718-2.187l11.945.476a19.28 19.28 0 0 1 7.308 1.782 21.5 21.5 0 0 1 6.15 4.3 22.256 22.256 0 0 1 4.384 6.192 21.112 21.112 0 0 1 2 7.472z" transform="translate(29.645 4.838)"/>
                    <g id="Group_26" data-name="Group 26" transform="translate(59.84 42.7)">
                        <path id="Path_45" data-name="Path 45" class="cls-8" d="M47.04 86.426a41.887 41.887 0 0 1-16.606-3.237 45.448 45.448 0 0 1-14.07-9.264 46.95 46.95 0 0 1-9.937-13.879 45.438 45.438 0 0 1-4.252-16.974V42.755a41.775 41.775 0 0 1 2.6-16.676A39.223 39.223 0 0 1 13.2 12.695a38.033 38.033 0 0 1 12.84-8.763A38.812 38.812 0 0 1 41.9 1.024a42.193 42.193 0 0 1 16.118 3.659 45.606 45.606 0 0 1 13.439 9.191 46.984 46.984 0 0 1 9.505 13.378 45.542 45.542 0 0 1 4.277 16.311 42.35 42.35 0 0 1-2.023 16.394 39.337 39.337 0 0 1-7.768 13.554 37.886 37.886 0 0 1-12.432 9.32 38.758 38.758 0 0 1-15.973 3.592zM41.949 1.9a38.239 38.239 0 0 0-15.534 2.873 37.148 37.148 0 0 0-12.55 8.572 38.344 38.344 0 0 0-8.24 13.1 41.256 41.256 0 0 0-2.554 16.35v.248a44.513 44.513 0 0 0 4.167 16.62 45.987 45.987 0 0 0 9.722 13.594 44.516 44.516 0 0 0 13.772 9.08 41.03 41.03 0 0 0 16.26 3.181 37.944 37.944 0 0 0 15.638-3.51 37.092 37.092 0 0 0 12.176-9.121 38.512 38.512 0 0 0 7.611-13.27A41.464 41.464 0 0 0 84.4 43.561a44.584 44.584 0 0 0-4.187-15.976 46 46 0 0 0-9.311-13.1 44.651 44.651 0 0 0-13.163-9A41.3 41.3 0 0 0 41.953 1.9z"/>
                        <g id="Group_27" data-name="Group 27" transform="translate(8.846 24.003)">
                            <path id="Ellipse_7" data-name="Ellipse 7" class="cls-6" d="M9.051.13A9.231 9.231 0 0 1 12.6.9a9.908 9.908 0 0 1 2.967 2 10.107 10.107 0 0 1 2.09 2.931 9.711 9.711 0 0 1 .908 3.569 9.01 9.01 0 0 1-.5 3.562 8.436 8.436 0 0 1-1.757 2.9 8.242 8.242 0 0 1-2.751 1.953 8.528 8.528 0 0 1-3.477.7 9.219 9.219 0 0 1-3.568-.75 9.9 9.9 0 0 1-3-2 10.106 10.106 0 0 1-2.11-2.955 9.706 9.706 0 0 1-.91-3.6 9 9 0 0 1 .521-3.581 8.428 8.428 0 0 1 1.787-2.9A8.244 8.244 0 0 1 5.576.8 8.54 8.54 0 0 1 9.051.13z" transform="translate(7.194 .298)"/>
                            <path id="Path_63" data-name="Path 63" class="cls-9" d="m46.512 38.077-44.349.074h-.127l-.042-.006 19.07-37.088a1.34 1.34 0 0 1 .216-.311 1.318 1.318 0 0 1 .287-.233 1.336 1.336 0 0 1 .343-.145 1.394 1.394 0 0 1 .38-.047 1.475 1.475 0 0 1 .386.058 1.558 1.558 0 0 1 .359.155 1.62 1.62 0 0 1 .314.241 1.639 1.639 0 0 1 .251.317l15.373 24.813.736 1.187z"/>
                            <path id="Path_65" data-name="Path 65" class="cls-9" d="m39.063 26.792-37.468.063 6.683-11.007.478-.788L17.346.912a1.741 1.741 0 0 1 .263-.292 1.721 1.721 0 0 1 .677-.369 1.782 1.782 0 0 1 .391-.064 1.862 1.862 0 0 1 .4.023 1.959 1.959 0 0 1 .39.107 2.056 2.056 0 0 1 .367.183 2.135 2.135 0 0 1 .329.261l.037.046.04.043.036.045.035.046z" transform="translate(31.429 11.246)"/>
                        </g>
                    </g>
                    <path id="Path_39" data-name="Path 39" class="cls-8" d="m90.514 25.627-87.507 2.8a1.65 1.65 0 0 1-.662-.116 1.73 1.73 0 0 1-.553-.355 1.8 1.8 0 0 1-.555-1.212L.085 3.591a1.73 1.73 0 0 1 .1-.671 1.662 1.662 0 0 1 .332-.553 1.6 1.6 0 0 1 1.158-.528L88.724.032a1.513 1.513 0 0 1 .613.118 1.664 1.664 0 0 1 .518.344 1.8 1.8 0 0 1 .537 1.158l1.564 22.255a1.741 1.741 0 0 1-.077.653 1.606 1.606 0 0 1-.3.541 1.483 1.483 0 0 1-.47.374 1.435 1.435 0 0 1-.6.151zM1.709 2.525a.961.961 0 0 0-.695.317 1 1 0 0 0-.2.332 1.038 1.038 0 0 0-.059.4l1.156 23.144a1.078 1.078 0 0 0 .333.727 1.037 1.037 0 0 0 .332.213.991.991 0 0 0 .4.07l87.495-2.769a.86.86 0 0 0 .359-.09.889.889 0 0 0 .282-.224.965.965 0 0 0 .178-.325 1.045 1.045 0 0 0 .046-.392L89.771 1.666a1.077 1.077 0 0 0-.322-.7 1 1 0 0 0-.311-.206.907.907 0 0 0-.368-.067z" transform="translate(62.066 148.399)"/>
                    <path id="Ellipse_5" data-name="Ellipse 5" class="cls-9" d="M6.988.161a6.865 6.865 0 0 1 2.739.5 7.246 7.246 0 0 1 2.291 1.489 7.529 7.529 0 0 1 2.308 5.032A7.318 7.318 0 0 1 13.932 10a7 7 0 0 1-1.365 2.334 6.733 6.733 0 0 1-2.13 1.612 6.65 6.65 0 0 1-2.687.648A6.861 6.861 0 0 1 5 14.1a7.242 7.242 0 0 1-2.308-1.489A7.528 7.528 0 0 1 .37 7.55a7.315 7.315 0 0 1 .407-2.829A7 7 0 0 1 2.16 2.389 6.729 6.729 0 0 1 4.3.791a6.652 6.652 0 0 1 2.688-.63z" transform="translate(68.723 155.815)"/>
                    <path id="Path_40" data-name="Path 40" class="cls-8" d="M1.147 1.31a1.084 1.084 0 0 0-.441.1 1.1 1.1 0 0 0-.35.264 1.15 1.15 0 0 0-.225.385 1.212 1.212 0 0 0-.064.467 1.255 1.255 0 0 0 .384.835 1.2 1.2 0 0 0 .379.247 1.125 1.125 0 0 0 .452.082l52.844-1.332a1.009 1.009 0 0 0 .422-.095 1.029 1.029 0 0 0 .335-.253 1.107 1.107 0 0 0 .215-.372 1.2 1.2 0 0 0 .062-.454 1.258 1.258 0 0 0-.36-.822 1.168 1.168 0 0 0-.362-.247A1.067 1.067 0 0 0 54 .026L1.147 1.311z" transform="translate(90.682 156.677)"/>
                    <path id="Path_41" data-name="Path 41" class="cls-8" d="M1.148 1.477a1.085 1.085 0 0 0-.442.106 1.1 1.1 0 0 0-.351.266 1.157 1.157 0 0 0-.225.387 1.221 1.221 0 0 0-.063.464 1.257 1.257 0 0 0 .384.837 1.2 1.2 0 0 0 .38.246 1.124 1.124 0 0 0 .452.081L54.2 2.369a1.01 1.01 0 0 0 .423-.1 1.034 1.034 0 0 0 .336-.254 1.115 1.115 0 0 0 .215-.374 1.207 1.207 0 0 0 .062-.456 1.264 1.264 0 0 0-.111-.454 1.249 1.249 0 0 0-.255-.369 1.167 1.167 0 0 0-.362-.247 1.064 1.064 0 0 0-.432-.088L1.148 1.477z" transform="translate(91.084 163.673)"/>
                    <path id="Path_42" data-name="Path 42" class="cls-8" d="M91.225 26.09 3.044 30.367a1.635 1.635 0 0 1-.667-.107 1.7 1.7 0 0 1-.558-.353 1.785 1.785 0 0 1-.392-.544 1.831 1.831 0 0 1-.168-.682L.087 5.122a1.789 1.789 0 0 1 .1-.685 1.732 1.732 0 0 1 .334-.569 1.661 1.661 0 0 1 .518-.394 1.621 1.621 0 0 1 .649-.162L89.4.058a1.5 1.5 0 0 1 .618.11 1.643 1.643 0 0 1 .522.342 1.778 1.778 0 0 1 .372.521 1.827 1.827 0 0 1 .169.649l1.591 22.635a1.8 1.8 0 0 1-.078.667 1.673 1.673 0 0 1-.3.556 1.53 1.53 0 0 1-.474.388 1.448 1.448 0 0 1-.6.164zM1.723 4.01a.973.973 0 0 0-.39.1 1 1 0 0 0-.311.237 1.039 1.039 0 0 0-.2.341 1.076 1.076 0 0 0-.06.411l1.176 23.549a1.1 1.1 0 0 0 .1.409 1.07 1.07 0 0 0 .235.327 1.024 1.024 0 0 0 .335.212.983.983 0 0 0 .4.065l88.168-4.25a.868.868 0 0 0 .361-.1.917.917 0 0 0 .284-.233 1 1 0 0 0 .179-.333 1.081 1.081 0 0 0 .046-.4L90.46 1.7a1.1 1.1 0 0 0-.1-.39 1.067 1.067 0 0 0-.225-.31.986.986 0 0 0-.313-.2.9.9 0 0 0-.371-.07z" transform="translate(63.997 185.713)"/>
                    <path id="Ellipse_6" data-name="Ellipse 6" class="cls-9" d="M7.044.278A6.8 6.8 0 0 1 9.8.744a7.143 7.143 0 0 1 2.31 1.477 7.493 7.493 0 0 1 1.624 2.263 7.657 7.657 0 0 1 .7 2.825 7.574 7.574 0 0 1-.395 2.876 7.3 7.3 0 0 1-1.375 2.4 6.948 6.948 0 0 1-2.146 1.677 6.72 6.72 0 0 1-2.708.7 6.8 6.8 0 0 1-2.775-.454 7.14 7.14 0 0 1-2.328-1.479 7.492 7.492 0 0 1-1.627-2.273 7.657 7.657 0 0 1-.7-2.845 7.571 7.571 0 0 1 .405-2.888 7.29 7.29 0 0 1 1.393-2.4A6.942 6.942 0 0 1 4.337.962 6.719 6.719 0 0 1 7.044.278z" transform="translate(70.71 194.397)"/>
                    <path id="Path_43" data-name="Path 43" class="cls-8" d="M1.156 2.212a1.094 1.094 0 0 0-.444.114 1.133 1.133 0 0 0-.353.274 1.2 1.2 0 0 0-.226.4 1.254 1.254 0 0 0-.064.476 1.275 1.275 0 0 0 .117.469 1.246 1.246 0 0 0 .27.376 1.181 1.181 0 0 0 .382.245 1.115 1.115 0 0 0 .455.077l53.245-2.227a1.02 1.02 0 0 0 .425-.1 1.06 1.06 0 0 0 .337-.266 1.152 1.152 0 0 0 .217-.383 1.242 1.242 0 0 0 .063-.467 1.282 1.282 0 0 0-.111-.459 1.247 1.247 0 0 0-.257-.371 1.154 1.154 0 0 0-.365-.246 1.056 1.056 0 0 0-.435-.083L1.156 2.212z" transform="translate(92.844 194.247)"/>
                    <path id="Path_44" data-name="Path 44" class="cls-8" d="M1.157 2.383a1.1 1.1 0 0 0-.445.117 1.138 1.138 0 0 0-.353.277 1.206 1.206 0 0 0-.226.4 1.263 1.263 0 0 0-.064.478 1.279 1.279 0 0 0 .118.47 1.247 1.247 0 0 0 .27.376 1.178 1.178 0 0 0 .383.245 1.114 1.114 0 0 0 .456.075l53.32-2.395a1.018 1.018 0 0 0 .417-.113 1.071 1.071 0 0 0 .33-.266 1.164 1.164 0 0 0 .211-.382 1.249 1.249 0 0 0 .06-.459 1.285 1.285 0 0 0-.109-.454 1.247 1.247 0 0 0-.251-.369 1.154 1.154 0 0 0-.357-.247 1.057 1.057 0 0 0-.428-.09L1.157 2.383z" transform="translate(93.253 201.366)"/>
                    <path id="Path_39-2" data-name="Path 39" class="cls-8" d="m91.947 26.565-88.865 5.81a1.621 1.621 0 0 1-.672-.1 1.681 1.681 0 0 1-.563-.35 1.779 1.779 0 0 1-.4-.548 1.862 1.862 0 0 1-.17-.692L.089 6.706a1.852 1.852 0 0 1 .1-.7 1.8 1.8 0 0 1 .337-.585 1.714 1.714 0 0 1 .522-.41 1.639 1.639 0 0 1 .652-.176L90.095.084a1.483 1.483 0 0 1 .622.1 1.619 1.619 0 0 1 .526.339 1.772 1.772 0 0 1 .376.525 1.856 1.856 0 0 1 .171.658l1.619 23.025a1.863 1.863 0 0 1-.078.68 1.743 1.743 0 0 1-.3.571 1.579 1.579 0 0 1-.477.4 1.466 1.466 0 0 1-.606.177zM1.737 5.546a.984.984 0 0 0-.393.106 1.03 1.03 0 0 0-.313.246 1.083 1.083 0 0 0-.2.351 1.112 1.112 0 0 0-.06.42l1.2 23.974a1.119 1.119 0 0 0 .1.415 1.068 1.068 0 0 0 .237.329 1.009 1.009 0 0 0 .338.21.975.975 0 0 0 .4.059L91.9 25.874a.88.88 0 0 0 .364-.106.949.949 0 0 0 .286-.242 1.046 1.046 0 0 0 .18-.343 1.117 1.117 0 0 0 .047-.408L91.16 1.743a1.112 1.112 0 0 0-.1-.4 1.064 1.064 0 0 0-.225-.315.972.972 0 0 0-.316-.2.89.89 0 0 0-.374-.061z" transform="translate(65.963 223.665)"/>
                    <path id="Ellipse_5-2" data-name="Ellipse 5" class="cls-9" d="M7.1.4a6.741 6.741 0 0 1 2.783.43 7.04 7.04 0 0 1 2.329 1.467 7.464 7.464 0 0 1 1.639 2.278 7.884 7.884 0 0 1 .315 5.8 7.6 7.6 0 0 1-1.385 2.467 7.176 7.176 0 0 1-2.163 1.743 6.79 6.79 0 0 1-5.526.345 7.037 7.037 0 0 1-2.347-1.468 7.463 7.463 0 0 1-1.651-2.292 7.884 7.884 0 0 1-.3-5.836A7.6 7.6 0 0 1 2.2 2.868a7.169 7.169 0 0 1 2.172-1.729A6.794 6.794 0 0 1 7.1.4z" transform="translate(72.733 233.661)"/>
                    <path id="Path_40-2" data-name="Path 40" class="cls-8" d="M1.165 3.145a1.107 1.107 0 0 0-.448.123 1.169 1.169 0 0 0-.355.286 1.247 1.247 0 0 0-.228.407 1.31 1.31 0 0 0 .054.962A1.242 1.242 0 0 0 .46 5.3a1.166 1.166 0 0 0 .385.243 1.105 1.105 0 0 0 .459.071l53.653-3.137a1.026 1.026 0 0 0 .428-.112 1.094 1.094 0 0 0 .34-.273 1.2 1.2 0 0 0 .218-.393 1.284 1.284 0 0 0 .062-.473 1.3 1.3 0 0 0-.113-.466 1.244 1.244 0 0 0-.259-.374 1.136 1.136 0 0 0-.366-.246 1.044 1.044 0 0 0-.438-.078L1.165 3.145z" transform="translate(95.044 232.466)"/>
                    <path id="Path_41-2" data-name="Path 41" class="cls-8" d="M1.167 3.323a1.108 1.108 0 0 0-.448.125 1.176 1.176 0 0 0-.356.288 1.257 1.257 0 0 0-.228.409 1.317 1.317 0 0 0 .054.965 1.24 1.24 0 0 0 .272.379 1.162 1.162 0 0 0 .386.243 1.1 1.1 0 0 0 .46.069l53.73-3.313a1.031 1.031 0 0 0 .429-.114 1.1 1.1 0 0 0 .34-.275 1.21 1.21 0 0 0 .218-.4 1.292 1.292 0 0 0 .062-.475 1.306 1.306 0 0 0-.113-.467 1.24 1.24 0 0 0-.259-.374 1.134 1.134 0 0 0-.368-.244 1.044 1.044 0 0 0-.439-.077L1.167 3.324z" transform="translate(95.46 239.705)"/>
                    <path id="Path_419" data-name="Path 419" class="cls-8" d="M312.307.978.973 30.3a1.57 1.57 0 0 1-.366 0 1.1 1.1 0 0 1-.3-.085.59.59 0 0 1-.207-.151.319.319 0 0 1-.081-.2.355.355 0 0 1 .067-.211.7.7 0 0 1 .2-.186 1.236 1.236 0 0 1 .294-.14 1.628 1.628 0 0 1 .363-.076L312.215.067a1.071 1.071 0 0 1 .281.01.829.829 0 0 1 .237.076.52.52 0 0 1 .168.13.323.323 0 0 1 .074.172.32.32 0 0 1-.038.182.5.5 0 0 1-.137.163.812.812 0 0 1-.217.119 1.075 1.075 0 0 1-.276.059z" transform="translate(0 300.509)"/>
                </g>
                <g id="undraw_well_done_i2wr">
                    <path id="Path_53" data-name="Path 53" class="cls-10" d="M67.147 31.927A48.238 48.238 0 0 0 58.7 17.732a50.943 50.943 0 0 0-11.868-10.2 42.664 42.664 0 0 0-13.2-5.49 26.15 26.15 0 0 0-12.392.03 23.113 23.113 0 0 0-10.219 6.176 33.8 33.8 0 0 0-7.251 11.3A41.726 41.726 0 0 0 .858 34.263a44.528 44.528 0 0 0 2.82 16.325 46.664 46.664 0 0 0 8.013 13.657 51.541 51.541 0 0 0 11.3 10.013 46.3 46.3 0 0 0 12.533 5.808 29.645 29.645 0 0 0 11.759 1.109 1.484 1.484 0 0 0-.066.134q-.03.069-.053.14t-.038.145c-.01.049-.018.1-.024.149l-.317 3.574a1.582 1.582 0 0 0 .018.413 1.644 1.644 0 0 0 .122.394 1.71 1.71 0 0 0 .217.356 1.757 1.757 0 0 0 1.075.64 1.7 1.7 0 0 0 .416.021 1.633 1.633 0 0 0 .409-.083l7.282-2.494a1.554 1.554 0 0 0 .366-.182 1.5 1.5 0 0 0 .64-.982 1.559 1.559 0 0 0 .019-.409 1.621 1.621 0 0 0-.086-.4 1.69 1.69 0 0 0-.183-.37 1.736 1.736 0 0 0-.28-.321l-2.739-2.52q-.037-.032-.075-.062t-.078-.058q-.04-.028-.081-.054t-.084-.049a25.731 25.731 0 0 0 8.424-7.379 37.819 37.819 0 0 0 5.774-11.323 43.446 43.446 0 0 0-.8-28.526z" transform="translate(41.704 84.287)"/>
                    <path id="Path_54" data-name="Path 54" class="cls-7" d="M.651 2.128a29.569 29.569 0 0 1 8.277 6.453 28.169 28.169 0 0 1 5.23 8.483 26.019 26.019 0 0 1 1.813 9.536 24.222 24.222 0 0 1-2.009 9.626.966.966 0 0 0 .04.9 1.292 1.292 0 0 0 .7.535 1.456 1.456 0 0 0 .915.018 1.112 1.112 0 0 0 .691-.646 26.516 26.516 0 0 0 2.064-10.38 28.465 28.465 0 0 0-1.982-10.265 30.78 30.78 0 0 0-5.6-9.145A32.315 32.315 0 0 0 1.944.232 1.317 1.317 0 0 0 .951.1a1.282 1.282 0 0 0-.71.508 1.047 1.047 0 0 0-.182.792 1.077 1.077 0 0 0 .592.728z" transform="translate(81.208 97.565)"/>
                    <path id="Path_57" data-name="Path 57" class="cls-10" d="M60.623 31.378a48.19 48.19 0 0 0-7.895-13.256A50.3 50.3 0 0 0 41.888 8.4a40.218 40.218 0 0 0-11.9-5.449 22.753 22.753 0 0 0-11.036-.375 18.822 18.822 0 0 0-8.936 5.314 28.4 28.4 0 0 0-6.158 10.08A37.64 37.64 0 0 0 1.65 31.306a43 43 0 0 0 2.929 14.986 46.61 46.61 0 0 0 7.474 12.724 50.986 50.986 0 0 0 10.3 9.514 44.024 44.024 0 0 0 11.3 5.726 26.345 26.345 0 0 0 10.5 1.417 1.251 1.251 0 0 0-.056.12 1.29 1.29 0 0 0-.043.126 1.361 1.361 0 0 0-.048.266l-.192 3.249a1.489 1.489 0 0 0 .026.377 1.614 1.614 0 0 0 .118.363 1.708 1.708 0 0 0 .2.332 1.74 1.74 0 0 0 .278.284 1.708 1.708 0 0 0 .334.212 1.616 1.616 0 0 0 .361.125 1.494 1.494 0 0 0 .371.033 1.373 1.373 0 0 0 .362-.062l6.424-2.023a1.268 1.268 0 0 0 .322-.153 1.231 1.231 0 0 0 .259-.231 1.252 1.252 0 0 0 .186-.3 1.334 1.334 0 0 0 .1-.347 1.448 1.448 0 0 0 .007-.372 1.579 1.579 0 0 0-.086-.367 1.677 1.677 0 0 0-.173-.344 1.74 1.74 0 0 0-.253-.3l-2.5-2.393q-.033-.031-.068-.059l-.071-.056-.074-.052-.076-.048a20.963 20.963 0 0 0 7.322-6.444 32.239 32.239 0 0 0 4.866-10.141 39.382 39.382 0 0 0 1.461-12.5 42.062 42.062 0 0 0-2.887-13.59z" transform="translate(154.676)"/>
                    <path id="Path_58" data-name="Path 58" class="cls-7" d="M.639 1.982A28.7 28.7 0 0 1 8.2 8.133a28.134 28.134 0 0 1 4.9 7.961 25.561 25.561 0 0 1 1.875 8.861 22.4 22.4 0 0 1-1.537 8.853.929.929 0 0 0 .06.834 1.252 1.252 0 0 0 .638.51 1.265 1.265 0 0 0 .818.038.933.933 0 0 0 .6-.582 24.563 24.563 0 0 0 1.566-9.549 27.976 27.976 0 0 0-2.045-9.537 30.748 30.748 0 0 0-5.25-8.583A31.4 31.4 0 0 0 1.742.257a1.164 1.164 0 0 0-.89-.144 1.066 1.066 0 0 0-.62.454.966.966 0 0 0-.142.733 1.065 1.065 0 0 0 .549.682z" transform="translate(196.495 41.86)"/>
                    <path id="Ellipse_3" data-name="Ellipse 3" class="cls-5" d="M1.619.035a1.668 1.668 0 0 1 .637.143 1.807 1.807 0 0 1 .535.363 1.843 1.843 0 0 1 .377.53 1.752 1.752 0 0 1 .165.643 1.6 1.6 0 0 1-.089.638 1.482 1.482 0 0 1-.315.516 1.45 1.45 0 0 1-.493.343 1.519 1.519 0 0 1-.622.117 1.668 1.668 0 0 1-.638-.142 1.807 1.807 0 0 1-.536-.364 1.843 1.843 0 0 1-.378-.531A1.752 1.752 0 0 1 .1 1.647a1.6 1.6 0 0 1 .09-.638A1.482 1.482 0 0 1 .5.492 1.45 1.45 0 0 1 1 .151a1.519 1.519 0 0 1 .619-.116z" transform="translate(192.691 151.599)"/>
                    <path id="Ellipse_4" data-name="Ellipse 4" class="cls-5" d="M3.252.018a3.247 3.247 0 0 1 1.279.256A3.49 3.49 0 0 1 5.6.986a3.618 3.618 0 0 1 .757 1.06 3.556 3.556 0 0 1 .332 1.3 3.359 3.359 0 0 1-.178 1.307 3.151 3.151 0 0 1-.632 1.072 3.024 3.024 0 0 1-2.24 1 3.246 3.246 0 0 1-1.282-.253A3.489 3.489 0 0 1 1.28 5.76 3.617 3.617 0 0 1 .525 4.7a3.556 3.556 0 0 1-.332-1.3 3.358 3.358 0 0 1 .181-1.31 3.149 3.149 0 0 1 .636-1.075 3.024 3.024 0 0 1 2.242-1z" transform="translate(191.321 215.346)"/>
                    <path id="Ellipse_5-3" data-name="Ellipse 5" class="cls-5" d="M1.964 0a2 2 0 0 1 .771.154A2.1 2.1 0 0 1 3.827 1.2a2.034 2.034 0 0 1 .189.768 1.936 1.936 0 0 1-.119.769A1.859 1.859 0 0 1 2.9 3.8a1.9 1.9 0 0 1-.757.158 2 2 0 0 1-.771-.158A2.1 2.1 0 0 1 .278 2.751a2.034 2.034 0 0 1-.189-.769 1.936 1.936 0 0 1 .12-.77 1.859 1.859 0 0 1 1-1.053A1.9 1.9 0 0 1 1.964 0z" transform="translate(136.478 205.39)"/>
                    <path id="Ellipse_6-2" data-name="Ellipse 6" class="cls-5" d="M2.062.025a2.114 2.114 0 0 1 .81.175 2.25 2.25 0 0 1 .678.453 2.278 2.278 0 0 1 .476.666 2.18 2.18 0 0 1 .2.811 2.028 2.028 0 0 1-.119.808 1.915 1.915 0 0 1-.406.657 1.889 1.889 0 0 1-.631.44 1.963 1.963 0 0 1-.794.155 2.113 2.113 0 0 1-.811-.172 2.25 2.25 0 0 1-.679-.454A2.278 2.278 0 0 1 .312 2.9a2.18 2.18 0 0 1-.2-.813 2.028 2.028 0 0 1 .12-.809A1.915 1.915 0 0 1 .636.617a1.889 1.889 0 0 1 .632-.438 1.963 1.963 0 0 1 .794-.154z" transform="translate(164.159 173.32)"/>
                    <path id="Ellipse_7-2" data-name="Ellipse 7" class="cls-5" d="M1.57.065a1.486 1.486 0 0 1 .621.109 1.648 1.648 0 0 1 .526.345 1.807 1.807 0 0 1 .377.528 1.872 1.872 0 0 1 .173.659 1.808 1.808 0 0 1-.073.669 1.657 1.657 0 0 1-.3.557 1.5 1.5 0 0 1-.471.387 1.427 1.427 0 0 1-.6.16A1.486 1.486 0 0 1 1.2 3.37a1.647 1.647 0 0 1-.527-.345A1.807 1.807 0 0 1 .3 2.5a1.872 1.872 0 0 1-.173-.66A1.808 1.808 0 0 1 .2 1.167 1.657 1.657 0 0 1 .5.61 1.5 1.5 0 0 1 .969.224 1.427 1.427 0 0 1 1.57.065z" transform="translate(270.886 295.327)"/>
                    <path id="Ellipse_8" data-name="Ellipse 8" class="cls-5" d="M3.225.078a3.14 3.14 0 0 1 1.27.236 3.4 3.4 0 0 1 1.068.7 3.616 3.616 0 0 1 1.093 2.373 3.483 3.483 0 0 1-.169 1.326 3.257 3.257 0 0 1-.621 1.1 3.063 3.063 0 0 1-.977.756 3 3 0 0 1-1.238.3 3.139 3.139 0 0 1-1.273-.233 3.4 3.4 0 0 1-1.072-.7 3.616 3.616 0 0 1-1.1-2.379 3.482 3.482 0 0 1 .177-1.332 3.256 3.256 0 0 1 .625-1.1 3.062 3.062 0 0 1 .98-.752A3 3 0 0 1 3.225.078z" transform="translate(214.203 258.516)"/>
                    <path id="Ellipse_9" data-name="Ellipse 9" class="cls-5" d="M1.79.012a1.766 1.766 0 0 1 .71.144 1.956 1.956 0 0 1 .6.4 2.078 2.078 0 0 1 .619 1.334 1.928 1.928 0 0 1-.088.738 1.755 1.755 0 0 1-.34.6 1.623 1.623 0 0 1-1.232.572 1.765 1.765 0 0 1-.708-.143 1.956 1.956 0 0 1-.6-.4 2.078 2.078 0 0 1-.62-1.336 1.927 1.927 0 0 1 .092-.741 1.754 1.754 0 0 1 .341-.6A1.623 1.623 0 0 1 1.79.012z" transform="translate(248.843 216.985)"/>
                    <path id="Ellipse_10" data-name="Ellipse 10" class="cls-5" d="M1.934.047A1.866 1.866 0 0 1 2.7.192a2.072 2.072 0 0 1 .647.43 2.243 2.243 0 0 1 .463.65 2.278 2.278 0 0 1 .212.8 2.163 2.163 0 0 1-.092.812 1.972 1.972 0 0 1-.365.671 1.809 1.809 0 0 1-.581.462 1.758 1.758 0 0 1-.741.183 1.865 1.865 0 0 1-.765-.144 2.071 2.071 0 0 1-.648-.43 2.243 2.243 0 0 1-.466-.646 2.278 2.278 0 0 1-.212-.806 2.162 2.162 0 0 1 .093-.813A1.971 1.971 0 0 1 .612.689a1.808 1.808 0 0 1 .582-.46 1.758 1.758 0 0 1 .74-.182z" transform="translate(263.391 257.39)"/>
                    <path id="Ellipse_18" data-name="Ellipse 18" class="cls-4" d="M4.831 14.528A47.038 47.038 0 0 1 7.046 8.97a30.013 30.013 0 0 1 2.466-4.3 11.323 11.323 0 0 1 2.422-2.634 2.355 2.355 0 0 1 2.088-.562 2.39 2.39 0 0 1 1.343 1.708 11.459 11.459 0 0 1 .389 3.566 30.165 30.165 0 0 1-.554 4.922 47.088 47.088 0 0 1-1.5 5.779 47.324 47.324 0 0 1-2.2 5.573 30.564 30.564 0 0 1-2.471 4.352 11.637 11.637 0 0 1-2.444 2.694 2.4 2.4 0 0 1-2.116.6 2.386 2.386 0 0 1-1.36-1.723 11.594 11.594 0 0 1-.384-3.618 30.544 30.544 0 0 1 .578-4.982 47.338 47.338 0 0 1 1.528-5.817z" transform="translate(103.02 326.895)"/>
                    <path id="Ellipse_19" data-name="Ellipse 19" class="cls-4" d="M30.829 1.654A29.255 29.255 0 0 1 52.5 9.451a29.893 29.893 0 0 1 6.78 9.374 31.063 31.063 0 0 1 2.81 11.838 32.339 32.339 0 0 1-1.89 12.22 32.943 32.943 0 0 1-6.086 10.393 32.332 32.332 0 0 1-9.414 7.485A30.84 30.84 0 0 1 32.835 64.2 29.556 29.556 0 0 1 20.7 62.67a29.258 29.258 0 0 1-10.122-6.051 29.882 29.882 0 0 1-7-9.621A31.088 31.088 0 0 1 .793 34.812a32.376 32.376 0 0 1 2.15-12.453 32.932 32.932 0 0 1 6.415-10.375 32.25 32.25 0 0 1 9.634-7.237 30.744 30.744 0 0 1 11.837-3.093z" transform="translate(53.356 335.284)"/>
                    <path id="Rectangle_21" data-name="Rectangle 21" class="cls-4" d="M0 .733 9.429 0l.537 17.308-9.463.8z" transform="translate(71.855 393.036)"/>
                    <path id="Rectangle_22" data-name="Rectangle 22" class="cls-4" d="M0 .722 9.287 0l.6 17.17-9.32.791z" transform="translate(90.642 391.587)"/>
                    <path id="Ellipse_20" data-name="Ellipse 20" class="cls-4" d="M7.887.656A19.034 19.034 0 0 1 10.95.638a12.273 12.273 0 0 1 2.511.439 5.05 5.05 0 0 1 1.707.819 1.528 1.528 0 0 1 .652 1.124 1.723 1.723 0 0 1-.576 1.229A5.786 5.786 0 0 1 13.6 5.355a13.27 13.27 0 0 1-2.472.864 19.524 19.524 0 0 1-3.053.5A19.1 19.1 0 0 1 5 6.746a12.365 12.365 0 0 1-2.53-.436 5.086 5.086 0 0 1-1.726-.822 1.528 1.528 0 0 1-.656-1.132A1.735 1.735 0 0 1 .676 3.12a5.86 5.86 0 0 1 1.665-1.109A13.392 13.392 0 0 1 4.83 1.15 19.581 19.581 0 0 1 7.887.656z" transform="translate(72.276 406.993)"/>
                    <path id="Ellipse_21" data-name="Ellipse 21" class="cls-4" d="M7.766.644a18.622 18.622 0 0 1 3.018-.015 12.048 12.048 0 0 1 2.475.437 4.991 4.991 0 0 1 1.685.814A1.527 1.527 0 0 1 15.592 3a1.7 1.7 0 0 1-.563 1.219 5.658 5.658 0 0 1-1.618 1.1 12.952 12.952 0 0 1-2.432.855 19.066 19.066 0 0 1-3 .5 18.684 18.684 0 0 1-3.029.023 12.137 12.137 0 0 1-2.494-.434 5.025 5.025 0 0 1-1.7-.817A1.527 1.527 0 0 1 .1 4.309a1.717 1.717 0 0 1 .573-1.226 5.73 5.73 0 0 1 1.636-1.1 13.07 13.07 0 0 1 2.448-.852A19.122 19.122 0 0 1 7.766.644z" transform="translate(91.106 405.037)"/>
                    <path id="Ellipse_22" data-name="Ellipse 22" class="cls-7" d="M10.471.624a10.016 10.016 0 0 1 7.455 2.654A10.222 10.222 0 0 1 20.262 6.5a10.586 10.586 0 0 1 .956 4.071 10.979 10.979 0 0 1-.673 4.184 11.16 11.16 0 0 1-2.111 3.53A10.959 10.959 0 0 1 15.2 20.8a10.49 10.49 0 0 1-4.042 1.119 10.018 10.018 0 0 1-7.524-2.63 10.221 10.221 0 0 1-2.361-3.254 10.588 10.588 0 0 1-.953-4.112 10.983 10.983 0 0 1 .7-4.211 11.159 11.159 0 0 1 2.151-3.528A10.951 10.951 0 0 1 6.432 1.7 10.48 10.48 0 0 1 10.471.624z" transform="translate(74.888 348.796)"/>
                    <path id="Ellipse_23" data-name="Ellipse 23" class="cls-6" d="M3.486.219a3.339 3.339 0 0 1 2.492.881 3.407 3.407 0 0 1 .782 1.08 3.529 3.529 0 0 1 .318 1.362 3.66 3.66 0 0 1-.228 1.4 3.72 3.72 0 0 1-.708 1.176 3.652 3.652 0 0 1-1.081.834 3.5 3.5 0 0 1-1.347.369 3.339 3.339 0 0 1-2.5-.879A3.407 3.407 0 0 1 .43 5.356 3.529 3.529 0 0 1 .112 3.99a3.66 3.66 0 0 1 .231-1.4 3.72 3.72 0 0 1 .712-1.176A3.651 3.651 0 0 1 2.139.583 3.494 3.494 0 0 1 3.486.219z" transform="translate(82.102 356.277)"/>
                    <path id="Path_61" data-name="Path 61" class="cls-10" d="M1.119 28A19.191 19.191 0 0 1 .9 19.653a21.476 21.476 0 0 1 3.179-7.713 23.959 23.959 0 0 1 5.975-6.22 25.212 25.212 0 0 1 8.186-3.9 24.509 24.509 0 0 1 8.915-.755 22.351 22.351 0 0 1 7.994 2.354 19.953 19.953 0 0 1 6.247 5 18.586 18.586 0 0 1 3.676 7.22 14.04 14.04 0 0 1 .223 7.079 10.791 10.791 0 0 1-3.16 5.189 21.664 21.664 0 0 1-5.959 3.8 59.844 59.844 0 0 1-8.176 2.9 68.642 68.642 0 0 1-8.916 2.014 28.522 28.522 0 0 1-8.013.189A12.307 12.307 0 0 1 4.8 34.242 11.439 11.439 0 0 1 1.119 28z" transform="translate(53.228 312.77)"/>
                    <path id="Ellipse_24" data-name="Ellipse 24" class="cls-4" d="M2.044 4.6a2.677 2.677 0 0 1 1.93-1.327 11.753 11.753 0 0 1 3.74-.193 29.69 29.69 0 0 1 5.01.9 45.2 45.2 0 0 1 5.744 1.935A44.609 44.609 0 0 1 23.88 8.56a28.53 28.53 0 0 1 4.111 2.84 10.99 10.99 0 0 1 2.426 2.71 2.517 2.517 0 0 1 .352 2.245 2.628 2.628 0 0 1-1.888 1.331 11.471 11.471 0 0 1-3.691.213 29.244 29.244 0 0 1-4.98-.869 44.991 44.991 0 0 1-5.752-1.918A44.79 44.79 0 0 1 9 12.464 28.768 28.768 0 0 1 4.844 9.6a11.045 11.045 0 0 1-2.456-2.736A2.5 2.5 0 0 1 2.044 4.6z" transform="translate(33.35 345.182)"/>
                    <path id="Path_62" data-name="Path 62" class="cls-7" d="M.11 6.163A4.438 4.438 0 0 0 1.549 8.81a15.369 15.369 0 0 0 3.728 2.753 21.956 21.956 0 0 0 5.323 2.045 20.121 20.121 0 0 0 6.228.532A16.03 16.03 0 0 0 23 12.265a24.066 24.066 0 0 0 5.168-3.7 22.346 22.346 0 0 0 3.529-4.139 6.465 6.465 0 0 0 1.262-3.206C32.928.455 32.42.146 31.54.12a15.533 15.533 0 0 0-3.649.606c-1.518.374-3.3.862-5.24 1.3a42.306 42.306 0 0 1-6.182.967c-2.146.153-4.245.235-6.186.32s-3.728.172-5.242.337a12.4 12.4 0 0 0-3.618.8A1.836 1.836 0 0 0 .11 6.163z" transform="translate(70.252 374.239)"/>
                    <path id="Path_70" data-name="Path 70" class="cls-9" d="M88.986 36.7a67.7 67.7 0 0 0-12.144-17.624 61.4 61.4 0 0 0-15.96-12.06 49.633 49.633 0 0 0-17.893-5.473 39.163 39.163 0 0 0-17.895 2.271C12.215 8.679 4.88 18.178 2.008 29.57-.887 41.049.768 54.388 5.795 66.732c5.036 12.368 13.426 23.66 23.916 31.015 10.44 7.32 22.887 10.69 36.054 7.366l2.541 8.647 14.939-6.65-5.095-7.449a37.076 37.076 0 0 0 10.8-11.6 44.843 44.843 0 0 0 5.6-15.4 55.361 55.361 0 0 0 .117-17.617A64.837 64.837 0 0 0 88.986 36.7z" transform="translate(0 116.121)"/>
                    <path id="Path_71" data-name="Path 71" class="cls-7" d="M21.133 32.142 15.264 34.6q-2.623-3.688-4.9-7.568T6.177 19.11q-1.912-4.036-3.451-8.21T.037 2.45L5.941.094A84.027 84.027 0 0 0 8.409 8.9a78.3 78.3 0 0 0 3.357 8.285 75.571 75.571 0 0 0 4.243 7.752 75.741 75.741 0 0 0 5.124 7.205z" transform="translate(6.1 161.788)"/>
                    <path id="Rectangle_27" data-name="Rectangle 27" class="cls-6" d="M0 7.463 16.958 0l1.771 3.719-16.946 7.5z" transform="translate(63.434 214.732)"/>
                    <path id="Path_72" data-name="Path 72" class="cls-6" d="M51.5 143.881a1 1 0 0 1-.409.046.988.988 0 0 1-.378-.116 1.01 1.01 0 0 1-.305-.255 1.054 1.054 0 0 1-.191-.372L.015.818l2-.506L52.2 142.536a1.1 1.1 0 0 1 .035.423 1.123 1.123 0 0 1-.12.394 1.1 1.1 0 0 1-.253.322 1.049 1.049 0 0 1-.363.206z" transform="translate(73.791 218.895)"/>
                    <path id="Path_73" data-name="Path 73" class="cls-5" d="M113.85 1.506.783 11.255a.726.726 0 0 1-.295-.034.692.692 0 0 1-.409-.37.733.733 0 0 1-.065-.291.791.791 0 0 1 .054-.3.838.838 0 0 1 .394-.44.783.783 0 0 1 .292-.085L113.786.059a.643.643 0 0 1 .5.17.688.688 0 0 1 .157.217.736.736 0 0 1 .066.277.772.772 0 0 1-.179.529.732.732 0 0 1-.212.174.677.677 0 0 1-.268.08z" transform="translate(25.415 407.294)"/>
                    <path id="Path_75" data-name="Path 75" class="cls-5" d="M100.4 1.389.736 8.753a.622.622 0 0 1-.261-.036.646.646 0 0 1-.219-.135.688.688 0 0 1-.156-.213.73.73 0 0 1-.064-.269.747.747 0 0 1 .038-.278.729.729 0 0 1 .126-.235.685.685 0 0 1 .2-.166.64.64 0 0 1 .255-.074L100.3.044a.559.559 0 0 1 .24.035.612.612 0 0 1 .2.13.683.683 0 0 1 .146.2.743.743 0 0 1 .039.523.681.681 0 0 1-.114.223.612.612 0 0 1-.183.158.557.557 0 0 1-.228.076z" transform="translate(174.264 367.814)"/>
                </g>
            </g>
        </g>
    </g>
</svg>
