<svg width="96" height="96" xmlns="http://www.w3.org/2000/svg" viewBox="0 0 96 96">
    <path d="M72 62c1.1 0 2-.9 2-2V40c0-1.1-.9-2-2-2H48c-13.7 0-24.9 10.6-25.9 24H72zm2-25.5c1.2.7 2 2 2 3.5v20c0 2.2-1.8 4-4 4H20c0-15 11.8-27.2 26.6-28H72v-1c0-2.8-2.2-5-5-5H45c-.6 0-1-.4-1-1s.4-1 1-1h22c3.9 0 7 3.1 7 7v1.5zM60.5 54c1.4 0 2.5-1.1 2.5-2.5S61.9 49 60.5 49 58 50.1 58 51.5s1.1 2.5 2.5 2.5zm-11 0c1.4 0 2.5-1.1 2.5-2.5S50.9 49 49.5 49 47 50.1 47 51.5s1.1 2.5 2.5 2.5zm-11 0c1.4 0 2.5-1.1 2.5-2.5S39.9 49 38.5 49 36 50.1 36 51.5s1.1 2.5 2.5 2.5zm-17 11h39c.8 0 1.5.7 1.5 1.5s-.7 1.5-1.5 1.5h-39c-.8 0-1.5-.7-1.5-1.5s.7-1.5 1.5-1.5z" fill-rule="evenodd" clip-rule="evenodd" fill="#003459"/>
</svg>
