<svg width="96" height="96" xmlns="http://www.w3.org/2000/svg" x="0" y="0" viewBox="0 0 96 96" xml:space="preserve">
  <style>
    .st0{fill-rule:evenodd;clip-rule:evenodd;fill:none;stroke:#003459;stroke-width:2}
  </style>
    <path class="st0" d="M56.4 33.1l1.3-2.8c.4-1 0-2.2-1-2.6L52 25.5c-1.2-.5-2-1.6-2.3-2.9l-.5-2.6h-4.4l-.5 2.7c-.3 1.2-1.1 2.3-2.3 2.8l-4.7 2.1h-.1c-1 .5-1.4 1.7-.9 2.7l1.3 2.6"/>
    <path class="st0" d="M21 76h54v-2c0-12.6-8.6-23.4-20.7-26.3l-.9-.2.9-8.7.5-.2c1.3-.7 2.1-2 2.1-3.5 0-2.2-1.8-4-4-4-1.6 0-3 1-3.7 2.4l-.1.5H45l-.3-.6C44 32 42.6 31 41 31c-2.2 0-4 1.8-4 4 0 1.5.8 2.9 2.1 3.5l.5.2 1 9.2-.8.2C28.7 51.8 21 62.2 21 74v2z"/>
</svg>
