<svg width="96" height="96" xmlns="http://www.w3.org/2000/svg" x="0" y="0" viewBox="0 0 96 96" xml:space="preserve">
  <style>
    .st1{fill-rule:evenodd;clip-rule:evenodd;fill:#003459}
  </style>
	<path id="Rectangle-7" d="M29 19h38c1.1 0 2 .9 2 2v54c0 1.1-.9 2-2 2H29c-1.1 0-2-.9-2-2V21c0-1.1.9-2 2-2z" fill-rule="evenodd" clip-rule="evenodd" fill="none" stroke="#003459" stroke-width="2"/>
	<path id="Rectangle-8" class="st1" d="M48.5 14c.8 0 1.5.7 1.5 1.5v3c0 .8-.7 1.5-1.5 1.5s-1.5-.7-1.5-1.5v-3c0-.8.7-1.5 1.5-1.5z"/>
	<path id="Rectangle-8-Copy" class="st1" d="M28.5 14c.8 0 1.5.7 1.5 1.5v3c0 .8-.7 1.5-1.5 1.5s-1.5-.7-1.5-1.5v-3c0-.8.7-1.5 1.5-1.5z"/>
	<path id="Rectangle-8-Copy-2" class="st1" d="M67.5 14c.8 0 1.5.7 1.5 1.5v3c0 .8-.7 1.5-1.5 1.5s-1.5-.7-1.5-1.5v-3c0-.8.7-1.5 1.5-1.5z"/>
	<path id="Rectangle-8-Copy-3" class="st1" d="M58.5 14c.8 0 1.5.7 1.5 1.5v3c0 .8-.7 1.5-1.5 1.5s-1.5-.7-1.5-1.5v-3c0-.8.7-1.5 1.5-1.5z"/>
	<path id="Rectangle-8-Copy-4" class="st1" d="M38.5 14c.8 0 1.5.7 1.5 1.5v3c0 .8-.7 1.5-1.5 1.5s-1.5-.7-1.5-1.5v-3c0-.8.7-1.5 1.5-1.5z"/>
	<path id="Rectangle-8_1_" class="st1" d="M48.5 76c.8 0 1.5.7 1.5 1.5v3c0 .8-.7 1.5-1.5 1.5s-1.5-.7-1.5-1.5v-3c0-.8.7-1.5 1.5-1.5z"/>
	<path id="Rectangle-8-Copy_1_" class="st1" d="M28.5 76c.8 0 1.5.7 1.5 1.5v3c0 .8-.7 1.5-1.5 1.5s-1.5-.7-1.5-1.5v-3c0-.8.7-1.5 1.5-1.5z"/>
	<path id="Rectangle-8-Copy-2_1_" class="st1" d="M67.5 76c.8 0 1.5.7 1.5 1.5v3c0 .8-.7 1.5-1.5 1.5s-1.5-.7-1.5-1.5v-3c0-.8.7-1.5 1.5-1.5z"/>
	<path id="Rectangle-8-Copy-3_1_" class="st1" d="M58.5 76c.8 0 1.5.7 1.5 1.5v3c0 .8-.7 1.5-1.5 1.5s-1.5-.7-1.5-1.5v-3c0-.8.7-1.5 1.5-1.5z"/>
	<path id="Rectangle-8-Copy-4_1_" class="st1" d="M38.5 76c.8 0 1.5.7 1.5 1.5v3c0 .8-.7 1.5-1.5 1.5s-1.5-.7-1.5-1.5v-3c0-.8.7-1.5 1.5-1.5z"/>
	<path id="Rectangle-9" d="M37.4 46.6l9.2-9.2c.8-.8 2-.8 2.8 0l9.2 9.2c.8.8.8 2 0 2.8l-9.2 9.2c-.8.8-2 .8-2.8 0l-9.2-9.2c-.8-.8-.8-2 0-2.8z" fill-rule="evenodd" clip-rule="evenodd" fill="none" stroke="#003459" stroke-width="3"/>
	<circle id="Oval-3" class="st1" cx="36" cy="28" r="2"/>
	<circle id="Oval-3-Copy" class="st1" cx="60" cy="28" r="2"/>
	<circle id="Oval-3-Copy-3" class="st1" cx="36" cy="68" r="2"/>
	<circle id="Oval-3-Copy-2" class="st1" cx="60" cy="68" r="2"/>
</svg>
