<svg viewBox="0 0 42 12" fill="none" xmlns="http://www.w3.org/2000/svg">
    <path d="M1.70324 10.711c-.39266.3883-1.025811.3849-1.414197-.0078-.3883864-.3926-.384929-1.02577.007722-1.41416L1.70324 10.711zM42 9.99454c.003.55226-.4423 1.00246-.9945 1.00546l-8.9999.0491c-.5523.003-1.0024-.4422-1.0054-.9945-.0031-.55227.4422-1.00242.9945-1.00544l7.9999-.04368-.0437-7.99988c-.003-.552281.4422-1.00243475.9945-1.00545123.5523-.00301551 1.0024.44224823 1.0054.99452523L42 9.99454zM1 10c-.703235-.71096-.702948-.71124-.70263-.71156.000147-.00014.000496-.00049.000791-.00078.000589-.00058.001303-.00128.002141-.0021.001676-.00165.003847-.00378.006513-.00639.005331-.00521.012639-.01233.021906-.02128.018535-.01791.044915-.04318.079008-.07533.068181-.06428.167249-.15608.296165-.27146.257778-.23071.635236-.55598 1.124046-.94418.977-.77592 2.40256-1.80622 4.21004-2.83583C9.64812 3.0746 14.8193 1 21 1v2C15.2686 3 10.4397 4.9254 7.02791 6.86891 5.32441 7.8393 3.9835 8.809 3.07177 9.53308c-.45555.3618-.80302.66152-1.03408.86832-.1155.1034-.20183.1834-.25794.2363-.02805.0265-.04854.0461-.06134.0585-.0064.0062-.01088.0106-.01341.013-.00127.0013-.00205.002-.00234.0023-.00015.0002-.00018.0002-.00008.0001.00005 0 .00021-.0002.00024-.0002C1.70301 10.7112 1.70324 10.711 1 10zm20-9c6.1807 0 11.3519 2.0746 14.962 4.13109 1.8075 1.02961 3.2331 2.05991 4.2101 2.83583.4888.3882.8662.71347 1.124.94418.1289.11538.228.20718.2962.27146.0341.03215.0604.05742.079.07533.0092.00895.0166.01607.0219.02128.0027.00261.0048.00474.0065.00639.0008.00082.0016.00152.0021.0021.0003.00029.0007.00064.0008.00078.0003.00032.0006.0006-.7026.71156-.7032.711-.703.7112-.7028.7114l.0002.0002-.0001-.0001c-.0002-.0003-.001-.001-.0023-.0023-.0025-.0024-.007-.0068-.0134-.013-.0128-.0124-.0333-.032-.0613-.0585-.0562-.0529-.1425-.1329-.258-.2363-.231-.2068-.5785-.50652-1.0341-.86832-.9117-.72408-2.2526-1.69378-3.9561-2.66417C31.5603 4.9254 26.7314 3 21 3V1z" fill="#003459"/>
</svg>
