<svg viewBox="0 0 96 96" fill="none" xmlns="http://www.w3.org/2000/svg">
    <circle cx="48" cy="30" r="6" fill="#39B6ED"/>
    <path d="M16 40c0-2.5181 1.1856-4.8892 3.2-6.4l26.4-19.8c1.4222-1.0667 3.3778-1.0667 4.8 0l26.4 19.8c2.0144 1.5108 3.2 3.8819 3.2 6.4v40c0 2.2091-1.7909 4-4 4H20c-2.2091 0-4-1.7909-4-4V40z" stroke="#003459" stroke-width="2"/>
    <rect x="28" y="48" width="16" height="24" rx="2" fill="#39B6ED"/>
    <path d="M68 84V50c0-1.1046-.8954-2-2-2H54c-1.1046 0-2 .8954-2 2v34" stroke="#003459" stroke-width="2"/>
</svg>
