<svg viewBox="0 0 96 96" fill="none" xmlns="http://www.w3.org/2000/svg">
    <path d="M62 80V61.6569c0-1.0609-.4214-2.0783-1.1716-2.8285l-8-8c-1.5621-1.5621-1.5621-4.0947 0-5.6568l8-8C61.5786 36.4214 62 35.404 62 34.3431V16c0-2.2091-1.7909-4-4-4H38c-2.2091 0-4 1.7909-4 4v18.3431c0 1.0609.4214 2.0783 1.1716 2.8285l8 8c1.5621 1.5621 1.5621 4.0947 0 5.6568l-8 8C34.4214 59.5786 34 60.596 34 61.6569V80c0 2.2091 1.7909 4 4 4h20c2.2091 0 4-1.7909 4-4z" stroke="#003459" stroke-width="2"/>
    <path d="M41.8284 35c-1.7818 0-2.6741 2.1543-1.4142 3.4142l6.1716 6.1716c.781.781 2.0474.781 2.8284 0l6.1716-6.1716C56.8457 37.1543 55.9534 35 54.1716 35H41.8284zM37 73.8284c0-.5304.2107-1.0391.5858-1.4142l9-9c.781-.781 2.0474-.781 2.8284 0l9 9c.3751.3751.5858.8838.5858 1.4142V79c0 1.1046-.8954 2-2 2H39c-1.1046 0-2-.8954-2-2v-5.1716z" fill="#39B6ED"/>
    <path d="M21 52v4M75 28v4M21 64v4M75 40v4M17 60h-4M71 36h-4M29 60h-4M83 36h-4" stroke="#003459" stroke-width="2" stroke-linecap="round" stroke-linejoin="round"/>
</svg>
