<svg viewBox="0 0 72 72" fill="none" xmlns="http://www.w3.org/2000/svg">
    <path clip-rule="evenodd" d="M24.75 36.75c0-3.2205-2.3887-6.558-7.1662-10.0103-.6698-.4838-.8188-1.4744-.3075-2.1345l2.499-3.2272c.4133-.5339 1.1561-.7264 1.7767-.4605 5.2084 2.2292 8.4918-1.7797 10.6913-6.3555 1.6515-.207 2.9032-.312 3.7567-.312.8535 0 2.1053.1043 3.7568.312 2.1993 4.5762 5.4826 8.5847 10.6912 6.3555.6207-.2659 1.3634-.0734 1.7768.4605l2.499 3.2272c.5113.6601.3623 1.6507-.3075 2.1345C49.6388 30.192 47.25 33.5295 47.25 36.75c0 3.201 2.3595 6.5175 7.0793 9.9473.7058.5132.8118 1.5659.2385 2.2102L50.01 54.03c-.4903.5506-1.3357.6599-1.95.252-4.6391-3.0785-8.4585-1.3386-10.9852 3.5632.3989.7744-.1846 1.7628-1.0748 1.7628-.871 0-1.4824-.9714-1.0747-1.7628-2.5264-4.901-6.3466-6.6427-10.9853-3.5632-.6142.4079-1.4596.2986-1.95-.252l-4.5577-5.1225c-.5801-.652-.4591-1.703.2385-2.2102C22.3905 43.2675 24.75 39.951 24.75 36.75z" stroke="#003459" stroke-width="1.5"/>
    <path clip-rule="evenodd" d="M34.1811 17.3623c-1.0358 1.9068-2.1785 3.5242-3.4622 4.7556-1.6415 1.5746-3.6461 2.6321-5.9691 2.6321-1.0729 0-2.188-.2568-3.2903-.6473l-.8804 1.137c4.2715 3.35 7.1707 7.166 7.1707 11.5103 0 4.2876-2.8242 8.0597-6.9986 11.3747l2.641 2.9682c1.645-.9458 3.3737-1.5929 5.1076-1.5929 3.1774 0 5.6284 1.7925 7.5 4.3614 1.8717-2.5689 4.3227-4.3614 7.5-4.3614 1.7336 0 3.4624.6473 5.1076 1.5931l2.6411-2.9684c-4.1744-3.315-6.9987-7.0871-6.9987-11.3747 0-4.3443 2.8993-8.1603 7.1708-11.5103l-.8804-1.137c-1.1023.3905-2.2174.6473-3.2904.6473-2.3229 0-4.3275-1.057-5.9693-2.6318-1.2838-1.2315-2.4264-2.8491-3.4622-4.7563-.7987-.0776-1.398-.1119-1.8185-.1119-.4201 0-1.0193.0346-1.8187.1123z" stroke="#003459" stroke-width="1.5" stroke-linecap="round" stroke-dasharray="0.04 3"/>
</svg>
