<svg viewBox="0 0 72 72" fill="none" xmlns="http://www.w3.org/2000/svg">
    <path d="M28.1867 24.6967c.143-.2359.3183-.4518.5216-.6411.3509-.3265.7749-.5643 1.2366-.6932.4616-.129.9474-.1455 1.4167-.0482.4694.0974.9085.3058 1.2807.6078.3723.302.6667.6888.8587 1.128l.1965.45h3.105l.1965-.45c.192-.4392.4864-.826.8587-1.128.3722-.302.8113-.5104 1.2807-.6078.4693-.0973.9551-.0808 1.4167.0482.4617.1289.8857.3667 1.2366.6932.2033.1892.3786.4051.5215.6409m-14.1265.0002c-.1038.1711-.1905.3528-.2585.5425-.1618.4512-.2131.9346-.1496 1.4097.0635.4751.2399.9281.5144 1.321.2745.3929.6392.7144 1.0635.9373l.3548.1875.7282 6.918-.5828.1853C21.5227 38.8485 15.75 46.6162 15.75 55.5V57h40.5v-1.5c0-9.4163-6.48-17.5275-15.5122-19.6927l-.6398-.1538.69-6.5595.3555-.1868c.4243-.2229.789-.5444 1.0635-.9373.2745-.3929.4509-.8459.5144-1.321.0635-.4751.0122-.9585-.1496-1.4097-.068-.1897-.1548-.3715-.2586-.5427m-14.1265.0002l-.9632-1.9259c-.0906-.1814-.1436-.3792-.1556-.5816-.0121-.2023.017-.4051.0855-.5959.0685-.1908.1749-.3657.3129-.5142.138-.1485.3047-.2675.49-.3499l3.5339-1.5712c.4385-.1948.8239-.492 1.1238-.8665.2999-.3745.5055-.8155.5997-1.286L33.615 15h3.27l.4013 2.0055c.0942.4705.2998.9115.5997 1.286.2999.3745.6853.6717 1.1238.8665l3.5339 1.5712c.1852.0824.3518.2013.4897.3498.1379.1485.2444.3233.3128.514.0685.1908.0976.3934.0857.5957-.012.2022-.0649.4-.1554.5813l-.9633 1.9265" stroke="#003459" stroke-width="1.5"/>
</svg>
