<svg viewBox="0 0 72 72" fill="none" xmlns="http://www.w3.org/2000/svg">
    <path d="M50.25 14.25h-28.5c-.8284 0-1.5.6716-1.5 1.5v40.5c0 .8284.6716 1.5 1.5 1.5h28.5c.8284 0 1.5-.6716 1.5-1.5v-40.5c0-.8284-.6716-1.5-1.5-1.5z" stroke="#003459" stroke-width="1.5"/>
    <path d="M37.5 11.625c0-.6213-.5037-1.125-1.125-1.125s-1.125.5037-1.125 1.125v2.25c0 .6213.5037 1.125 1.125 1.125s1.125-.5037 1.125-1.125v-2.25zM22.5 11.625c0-.6213-.5037-1.125-1.125-1.125s-1.125.5037-1.125 1.125v2.25c0 .6213.5037 1.125 1.125 1.125s1.125-.5037 1.125-1.125v-2.25zM51.75 11.625c0-.6213-.5037-1.125-1.125-1.125s-1.125.5037-1.125 1.125v2.25c0 .6213.5037 1.125 1.125 1.125s1.125-.5037 1.125-1.125v-2.25zM45 11.625c0-.6213-.5037-1.125-1.125-1.125s-1.125.5037-1.125 1.125v2.25c0 .6213.5037 1.125 1.125 1.125S45 14.4963 45 13.875v-2.25zM30 11.625c0-.6213-.5037-1.125-1.125-1.125s-1.125.5037-1.125 1.125v2.25c0 .6213.5037 1.125 1.125 1.125S30 14.4963 30 13.875v-2.25zM37.5 58.125c0-.6213-.5037-1.125-1.125-1.125s-1.125.5037-1.125 1.125v2.25c0 .6213.5037 1.125 1.125 1.125s1.125-.5037 1.125-1.125v-2.25zM22.5 58.125c0-.6213-.5037-1.125-1.125-1.125s-1.125.5037-1.125 1.125v2.25c0 .6213.5037 1.125 1.125 1.125s1.125-.5037 1.125-1.125v-2.25zM51.75 58.125c0-.6213-.5037-1.125-1.125-1.125s-1.125.5037-1.125 1.125v2.25c0 .6213.5037 1.125 1.125 1.125s1.125-.5037 1.125-1.125v-2.25zM45 58.125c0-.6213-.5037-1.125-1.125-1.125s-1.125.5037-1.125 1.125v2.25c0 .6213.5037 1.125 1.125 1.125S45 60.9963 45 60.375v-2.25zM30 58.125c0-.6213-.5037-1.125-1.125-1.125s-1.125.5037-1.125 1.125v2.25c0 .6213.5037 1.125 1.125 1.125S30 60.9963 30 60.375v-2.25z" fill="#003459"/>
    <path d="M34.9393 28.045l-6.8943 6.8943c-.5858.5858-.5858 1.5356 0 2.1214l6.8943 6.8943c.5858.5857 1.5356.5857 2.1213 0l6.8943-6.8943c.5858-.5858.5858-1.5356 0-2.1214l-6.8943-6.8943c-.5857-.5857-1.5355-.5857-2.1213 0z" stroke="#003459" stroke-width="2.25"/>
    <path d="M27 22.5c.8284 0 1.5-.6716 1.5-1.5s-.6716-1.5-1.5-1.5-1.5.6716-1.5 1.5.6716 1.5 1.5 1.5zM45 22.5c.8284 0 1.5-.6716 1.5-1.5s-.6716-1.5-1.5-1.5-1.5.6716-1.5 1.5.6716 1.5 1.5 1.5zM27 52.5c.8284 0 1.5-.6716 1.5-1.5s-.6716-1.5-1.5-1.5-1.5.6716-1.5 1.5.6716 1.5 1.5 1.5zM45 52.5c.8284 0 1.5-.6716 1.5-1.5s-.6716-1.5-1.5-1.5-1.5.6716-1.5 1.5.6716 1.5 1.5 1.5z" fill="#003459"/>
</svg>
