<svg viewBox="0 0 96 96" fill="none" xmlns="http://www.w3.org/2000/svg">
    <path d="M60 35c0-1.1046.8954-2 2-2h7.1621c1.6998 0 3.2139 1.0743 3.7754 2.6786l5.1313 14.6607C78.5239 51.6397 77.5587 53 76.181 53H62c-1.1046 0-2-.8954-2-2V35z" fill="#39B6ED"/>
    <circle cx="28" cy="44" r="8" fill="#39B6ED"/>
    <circle cx="28" cy="76" r="8" stroke="#003459" stroke-width="2"/>
    <circle cx="68" cy="76" r="8" stroke="#003459" stroke-width="2"/>
    <path d="M24 42l2 4 2-4 2 4 2-4" stroke="#003459" stroke-width="2" stroke-linecap="round" stroke-linejoin="round"/>
    <path d="M60 76H36m40 0h4c2.2091 0 4-1.7908 4-4v-8M20 76h-4c-2.2091 0-4-1.7908-4-4v-8m72 0V52.6492c0-.43-.0693-.8571-.2053-1.265l-5.9713-17.914C76.7345 30.2035 73.6774 28 70.2339 28H57.4721c-1.5151 0-2.9001-.856-3.5777-2.2111l-1.7888-3.5777C51.428 20.856 50.0429 20 48.5279 20H20c-4.4183 0-8 3.5818-8 8v36m72 0H12" stroke="#003459" stroke-width="2"/>
</svg>
